<mxfile host="app.diagrams.net" modified="2022-05-17T23:10:45.556Z" agent="5.0 (Windows NT 10.0; Win64; x64) AppleWebKit/537.36 (KHTML, like Gecko) Chrome/101.0.4951.54 Safari/537.36" etag="sMIf_sBRXbAeti2vQGOk" version="18.0.6" type="github">
  <diagram name="Page-1" id="e7e014a7-5840-1c2e-5031-d8a46d1fe8dd">
    <mxGraphModel dx="3911" dy="3926" grid="1" gridSize="10" guides="1" tooltips="1" connect="1" arrows="1" fold="1" page="1" pageScale="1" pageWidth="1169" pageHeight="826" background="none" math="0" shadow="0">
      <root>
        <mxCell id="0" />
        <mxCell id="1" parent="0" />
        <mxCell id="ot_BCaKHzkHSlwnmK5Li-112" value="" style="rounded=0;whiteSpace=wrap;html=1;dashed=1;fillColor=#dae8fc;strokeColor=#6c8ebf;" vertex="1" parent="1">
          <mxGeometry x="2458" y="152" width="392" height="640" as="geometry" />
        </mxCell>
        <mxCell id="wcBPrysFTeDaV5ZYO1Ei-82" value="" style="rounded=0;whiteSpace=wrap;html=1;dashed=1;fillColor=#dae8fc;strokeColor=#6c8ebf;" parent="1" vertex="1">
          <mxGeometry x="1440" y="-1130" width="1010" height="1188" as="geometry" />
        </mxCell>
        <mxCell id="wcBPrysFTeDaV5ZYO1Ei-81" value="" style="rounded=0;whiteSpace=wrap;html=1;dashed=1;fillColor=#dae8fc;strokeColor=#6c8ebf;" parent="1" vertex="1">
          <mxGeometry x="1287" y="150" width="943" height="870" as="geometry" />
        </mxCell>
        <mxCell id="wcBPrysFTeDaV5ZYO1Ei-75" value="" style="rounded=0;whiteSpace=wrap;html=1;dashed=1;fillColor=#dae8fc;strokeColor=#6c8ebf;" parent="1" vertex="1">
          <mxGeometry x="3340" y="216" width="1106" height="640" as="geometry" />
        </mxCell>
        <mxCell id="wcBPrysFTeDaV5ZYO1Ei-73" value="" style="rounded=0;whiteSpace=wrap;html=1;dashed=1;fillColor=#dae8fc;strokeColor=#6c8ebf;" parent="1" vertex="1">
          <mxGeometry x="2494" y="-350" width="1160" height="408" as="geometry" />
        </mxCell>
        <mxCell id="wcBPrysFTeDaV5ZYO1Ei-71" value="" style="rounded=0;whiteSpace=wrap;html=1;dashed=1;fillColor=#dae8fc;strokeColor=#6c8ebf;" parent="1" vertex="1">
          <mxGeometry x="710" y="-328" width="690" height="386" as="geometry" />
        </mxCell>
        <mxCell id="wcBPrysFTeDaV5ZYO1Ei-64" value="" style="rounded=0;whiteSpace=wrap;html=1;dashed=1;fillColor=#dae8fc;strokeColor=#6c8ebf;" parent="1" vertex="1">
          <mxGeometry x="1260" y="1100" width="960" height="420" as="geometry" />
        </mxCell>
        <mxCell id="cqDJRctu_U0ZVXSVVv-S-1" value="gyms" style="shape=table;startSize=30;container=1;collapsible=1;childLayout=tableLayout;fixedRows=1;rowLines=0;fontStyle=1;align=center;resizeLast=1;" parent="1" vertex="1">
          <mxGeometry x="1660" y="280" width="240" height="300" as="geometry" />
        </mxCell>
        <mxCell id="cqDJRctu_U0ZVXSVVv-S-2" value="" style="shape=tableRow;horizontal=0;startSize=0;swimlaneHead=0;swimlaneBody=0;fillColor=none;collapsible=0;dropTarget=0;points=[[0,0.5],[1,0.5]];portConstraint=eastwest;top=0;left=0;right=0;bottom=1;" parent="cqDJRctu_U0ZVXSVVv-S-1" vertex="1">
          <mxGeometry y="30" width="240" height="30" as="geometry" />
        </mxCell>
        <mxCell id="cqDJRctu_U0ZVXSVVv-S-3" value="PK" style="shape=partialRectangle;connectable=0;fillColor=#f5f5f5;top=0;left=0;bottom=0;right=0;fontStyle=1;overflow=hidden;fontColor=#333333;strokeColor=#666666;" parent="cqDJRctu_U0ZVXSVVv-S-2" vertex="1">
          <mxGeometry width="80" height="30" as="geometry">
            <mxRectangle width="80" height="30" as="alternateBounds" />
          </mxGeometry>
        </mxCell>
        <mxCell id="cqDJRctu_U0ZVXSVVv-S-4" value="id" style="shape=partialRectangle;connectable=0;fillColor=#f5f5f5;top=0;left=0;bottom=0;right=0;align=left;spacingLeft=6;fontStyle=5;overflow=hidden;fontColor=#333333;strokeColor=#666666;" parent="cqDJRctu_U0ZVXSVVv-S-2" vertex="1">
          <mxGeometry x="80" width="160" height="30" as="geometry">
            <mxRectangle width="160" height="30" as="alternateBounds" />
          </mxGeometry>
        </mxCell>
        <mxCell id="wcBPrysFTeDaV5ZYO1Ei-78" style="shape=tableRow;horizontal=0;startSize=0;swimlaneHead=0;swimlaneBody=0;fillColor=none;collapsible=0;dropTarget=0;points=[[0,0.5],[1,0.5]];portConstraint=eastwest;top=0;left=0;right=0;bottom=0;" parent="cqDJRctu_U0ZVXSVVv-S-1" vertex="1">
          <mxGeometry y="60" width="240" height="30" as="geometry" />
        </mxCell>
        <mxCell id="wcBPrysFTeDaV5ZYO1Ei-79" value="varchar(256)" style="shape=partialRectangle;connectable=0;fillColor=#f5f5f5;top=0;left=0;bottom=0;right=0;editable=1;overflow=hidden;fontColor=#333333;strokeColor=#666666;" parent="wcBPrysFTeDaV5ZYO1Ei-78" vertex="1">
          <mxGeometry width="80" height="30" as="geometry">
            <mxRectangle width="80" height="30" as="alternateBounds" />
          </mxGeometry>
        </mxCell>
        <mxCell id="wcBPrysFTeDaV5ZYO1Ei-80" value="name" style="shape=partialRectangle;connectable=0;fillColor=#f5f5f5;top=0;left=0;bottom=0;right=0;align=left;spacingLeft=6;overflow=hidden;fontColor=#333333;strokeColor=#666666;" parent="wcBPrysFTeDaV5ZYO1Ei-78" vertex="1">
          <mxGeometry x="80" width="160" height="30" as="geometry">
            <mxRectangle width="160" height="30" as="alternateBounds" />
          </mxGeometry>
        </mxCell>
        <mxCell id="nS6iPJSSFPPUDI0pfMjD-26" style="shape=tableRow;horizontal=0;startSize=0;swimlaneHead=0;swimlaneBody=0;fillColor=none;collapsible=0;dropTarget=0;points=[[0,0.5],[1,0.5]];portConstraint=eastwest;top=0;left=0;right=0;bottom=0;" parent="cqDJRctu_U0ZVXSVVv-S-1" vertex="1">
          <mxGeometry y="90" width="240" height="30" as="geometry" />
        </mxCell>
        <mxCell id="nS6iPJSSFPPUDI0pfMjD-27" value="varchar(256)" style="shape=partialRectangle;connectable=0;fillColor=#f5f5f5;top=0;left=0;bottom=0;right=0;editable=1;overflow=hidden;fontColor=#333333;strokeColor=#666666;" parent="nS6iPJSSFPPUDI0pfMjD-26" vertex="1">
          <mxGeometry width="80" height="30" as="geometry">
            <mxRectangle width="80" height="30" as="alternateBounds" />
          </mxGeometry>
        </mxCell>
        <mxCell id="nS6iPJSSFPPUDI0pfMjD-28" value="name" style="shape=partialRectangle;connectable=0;fillColor=#f5f5f5;top=0;left=0;bottom=0;right=0;align=left;spacingLeft=6;overflow=hidden;fontColor=#333333;strokeColor=#666666;" parent="nS6iPJSSFPPUDI0pfMjD-26" vertex="1">
          <mxGeometry x="80" width="160" height="30" as="geometry">
            <mxRectangle width="160" height="30" as="alternateBounds" />
          </mxGeometry>
        </mxCell>
        <mxCell id="cqDJRctu_U0ZVXSVVv-S-5" value="" style="shape=tableRow;horizontal=0;startSize=0;swimlaneHead=0;swimlaneBody=0;fillColor=none;collapsible=0;dropTarget=0;points=[[0,0.5],[1,0.5]];portConstraint=eastwest;top=0;left=0;right=0;bottom=0;" parent="cqDJRctu_U0ZVXSVVv-S-1" vertex="1">
          <mxGeometry y="120" width="240" height="30" as="geometry" />
        </mxCell>
        <mxCell id="cqDJRctu_U0ZVXSVVv-S-6" value="varchar(128)" style="shape=partialRectangle;connectable=0;fillColor=#f5f5f5;top=0;left=0;bottom=0;right=0;editable=1;overflow=hidden;fontColor=#333333;strokeColor=#666666;" parent="cqDJRctu_U0ZVXSVVv-S-5" vertex="1">
          <mxGeometry width="80" height="30" as="geometry">
            <mxRectangle width="80" height="30" as="alternateBounds" />
          </mxGeometry>
        </mxCell>
        <mxCell id="cqDJRctu_U0ZVXSVVv-S-7" value="email" style="shape=partialRectangle;connectable=0;fillColor=#f5f5f5;top=0;left=0;bottom=0;right=0;align=left;spacingLeft=6;overflow=hidden;fontColor=#333333;strokeColor=#666666;" parent="cqDJRctu_U0ZVXSVVv-S-5" vertex="1">
          <mxGeometry x="80" width="160" height="30" as="geometry">
            <mxRectangle width="160" height="30" as="alternateBounds" />
          </mxGeometry>
        </mxCell>
        <mxCell id="cqDJRctu_U0ZVXSVVv-S-8" value="" style="shape=tableRow;horizontal=0;startSize=0;swimlaneHead=0;swimlaneBody=0;fillColor=none;collapsible=0;dropTarget=0;points=[[0,0.5],[1,0.5]];portConstraint=eastwest;top=0;left=0;right=0;bottom=0;" parent="cqDJRctu_U0ZVXSVVv-S-1" vertex="1">
          <mxGeometry y="150" width="240" height="30" as="geometry" />
        </mxCell>
        <mxCell id="cqDJRctu_U0ZVXSVVv-S-9" value="varchar(256)" style="shape=partialRectangle;connectable=0;fillColor=#f5f5f5;top=0;left=0;bottom=0;right=0;editable=1;overflow=hidden;fontColor=#333333;strokeColor=#666666;" parent="cqDJRctu_U0ZVXSVVv-S-8" vertex="1">
          <mxGeometry width="80" height="30" as="geometry">
            <mxRectangle width="80" height="30" as="alternateBounds" />
          </mxGeometry>
        </mxCell>
        <mxCell id="cqDJRctu_U0ZVXSVVv-S-10" value="password" style="shape=partialRectangle;connectable=0;fillColor=#f5f5f5;top=0;left=0;bottom=0;right=0;align=left;spacingLeft=6;overflow=hidden;fontColor=#333333;strokeColor=#666666;" parent="cqDJRctu_U0ZVXSVVv-S-8" vertex="1">
          <mxGeometry x="80" width="160" height="30" as="geometry">
            <mxRectangle width="160" height="30" as="alternateBounds" />
          </mxGeometry>
        </mxCell>
        <mxCell id="cqDJRctu_U0ZVXSVVv-S-11" value="" style="shape=tableRow;horizontal=0;startSize=0;swimlaneHead=0;swimlaneBody=0;fillColor=none;collapsible=0;dropTarget=0;points=[[0,0.5],[1,0.5]];portConstraint=eastwest;top=0;left=0;right=0;bottom=0;" parent="cqDJRctu_U0ZVXSVVv-S-1" vertex="1">
          <mxGeometry y="180" width="240" height="30" as="geometry" />
        </mxCell>
        <mxCell id="cqDJRctu_U0ZVXSVVv-S-12" value="varchar(128)" style="shape=partialRectangle;connectable=0;fillColor=#f5f5f5;top=0;left=0;bottom=0;right=0;editable=1;overflow=hidden;fontColor=#333333;strokeColor=#666666;" parent="cqDJRctu_U0ZVXSVVv-S-11" vertex="1">
          <mxGeometry width="80" height="30" as="geometry">
            <mxRectangle width="80" height="30" as="alternateBounds" />
          </mxGeometry>
        </mxCell>
        <mxCell id="cqDJRctu_U0ZVXSVVv-S-13" value="state" style="shape=partialRectangle;connectable=0;fillColor=#f5f5f5;top=0;left=0;bottom=0;right=0;align=left;spacingLeft=6;overflow=hidden;fontColor=#333333;strokeColor=#666666;" parent="cqDJRctu_U0ZVXSVVv-S-11" vertex="1">
          <mxGeometry x="80" width="160" height="30" as="geometry">
            <mxRectangle width="160" height="30" as="alternateBounds" />
          </mxGeometry>
        </mxCell>
        <mxCell id="nS6iPJSSFPPUDI0pfMjD-11" style="shape=tableRow;horizontal=0;startSize=0;swimlaneHead=0;swimlaneBody=0;fillColor=none;collapsible=0;dropTarget=0;points=[[0,0.5],[1,0.5]];portConstraint=eastwest;top=0;left=0;right=0;bottom=0;" parent="cqDJRctu_U0ZVXSVVv-S-1" vertex="1">
          <mxGeometry y="210" width="240" height="30" as="geometry" />
        </mxCell>
        <mxCell id="nS6iPJSSFPPUDI0pfMjD-12" value="varchar(128)" style="shape=partialRectangle;connectable=0;fillColor=#f5f5f5;top=0;left=0;bottom=0;right=0;editable=1;overflow=hidden;fontColor=#333333;strokeColor=#666666;" parent="nS6iPJSSFPPUDI0pfMjD-11" vertex="1">
          <mxGeometry width="80" height="30" as="geometry">
            <mxRectangle width="80" height="30" as="alternateBounds" />
          </mxGeometry>
        </mxCell>
        <mxCell id="nS6iPJSSFPPUDI0pfMjD-13" value="city" style="shape=partialRectangle;connectable=0;fillColor=#f5f5f5;top=0;left=0;bottom=0;right=0;align=left;spacingLeft=6;overflow=hidden;fontColor=#333333;strokeColor=#666666;" parent="nS6iPJSSFPPUDI0pfMjD-11" vertex="1">
          <mxGeometry x="80" width="160" height="30" as="geometry">
            <mxRectangle width="160" height="30" as="alternateBounds" />
          </mxGeometry>
        </mxCell>
        <mxCell id="nS6iPJSSFPPUDI0pfMjD-14" style="shape=tableRow;horizontal=0;startSize=0;swimlaneHead=0;swimlaneBody=0;fillColor=none;collapsible=0;dropTarget=0;points=[[0,0.5],[1,0.5]];portConstraint=eastwest;top=0;left=0;right=0;bottom=0;" parent="cqDJRctu_U0ZVXSVVv-S-1" vertex="1">
          <mxGeometry y="240" width="240" height="30" as="geometry" />
        </mxCell>
        <mxCell id="nS6iPJSSFPPUDI0pfMjD-15" value="varchar(256)" style="shape=partialRectangle;connectable=0;fillColor=#f5f5f5;top=0;left=0;bottom=0;right=0;editable=1;overflow=hidden;fontColor=#333333;strokeColor=#666666;" parent="nS6iPJSSFPPUDI0pfMjD-14" vertex="1">
          <mxGeometry width="80" height="30" as="geometry">
            <mxRectangle width="80" height="30" as="alternateBounds" />
          </mxGeometry>
        </mxCell>
        <mxCell id="nS6iPJSSFPPUDI0pfMjD-16" value="street   " style="shape=partialRectangle;connectable=0;fillColor=#f5f5f5;top=0;left=0;bottom=0;right=0;align=left;spacingLeft=6;overflow=hidden;fontColor=#333333;strokeColor=#666666;" parent="nS6iPJSSFPPUDI0pfMjD-14" vertex="1">
          <mxGeometry x="80" width="160" height="30" as="geometry">
            <mxRectangle width="160" height="30" as="alternateBounds" />
          </mxGeometry>
        </mxCell>
        <mxCell id="nS6iPJSSFPPUDI0pfMjD-17" style="shape=tableRow;horizontal=0;startSize=0;swimlaneHead=0;swimlaneBody=0;fillColor=none;collapsible=0;dropTarget=0;points=[[0,0.5],[1,0.5]];portConstraint=eastwest;top=0;left=0;right=0;bottom=0;" parent="cqDJRctu_U0ZVXSVVv-S-1" vertex="1">
          <mxGeometry y="270" width="240" height="30" as="geometry" />
        </mxCell>
        <mxCell id="nS6iPJSSFPPUDI0pfMjD-18" value="varchar(64)" style="shape=partialRectangle;connectable=0;fillColor=#f5f5f5;top=0;left=0;bottom=0;right=0;editable=1;overflow=hidden;fontColor=#333333;strokeColor=#666666;" parent="nS6iPJSSFPPUDI0pfMjD-17" vertex="1">
          <mxGeometry width="80" height="30" as="geometry">
            <mxRectangle width="80" height="30" as="alternateBounds" />
          </mxGeometry>
        </mxCell>
        <mxCell id="nS6iPJSSFPPUDI0pfMjD-19" value="address_number" style="shape=partialRectangle;connectable=0;fillColor=#f5f5f5;top=0;left=0;bottom=0;right=0;align=left;spacingLeft=6;overflow=hidden;fontColor=#333333;strokeColor=#666666;" parent="nS6iPJSSFPPUDI0pfMjD-17" vertex="1">
          <mxGeometry x="80" width="160" height="30" as="geometry">
            <mxRectangle width="160" height="30" as="alternateBounds" />
          </mxGeometry>
        </mxCell>
        <mxCell id="nS6iPJSSFPPUDI0pfMjD-29" value="members" style="shape=table;startSize=30;container=1;collapsible=1;childLayout=tableLayout;fixedRows=1;rowLines=0;fontStyle=1;align=center;resizeLast=1;" parent="1" vertex="1">
          <mxGeometry x="1692" y="-442" width="278" height="420" as="geometry" />
        </mxCell>
        <mxCell id="nS6iPJSSFPPUDI0pfMjD-30" value="" style="shape=tableRow;horizontal=0;startSize=0;swimlaneHead=0;swimlaneBody=0;fillColor=none;collapsible=0;dropTarget=0;points=[[0,0.5],[1,0.5]];portConstraint=eastwest;top=0;left=0;right=0;bottom=1;" parent="nS6iPJSSFPPUDI0pfMjD-29" vertex="1">
          <mxGeometry y="30" width="278" height="30" as="geometry" />
        </mxCell>
        <mxCell id="nS6iPJSSFPPUDI0pfMjD-31" value="PK" style="shape=partialRectangle;connectable=0;top=0;left=0;bottom=0;right=0;fontStyle=1;overflow=hidden;fillColor=#f5f5f5;fontColor=#333333;strokeColor=#666666;" parent="nS6iPJSSFPPUDI0pfMjD-30" vertex="1">
          <mxGeometry width="118" height="30" as="geometry">
            <mxRectangle width="118" height="30" as="alternateBounds" />
          </mxGeometry>
        </mxCell>
        <mxCell id="nS6iPJSSFPPUDI0pfMjD-32" value="id" style="shape=partialRectangle;connectable=0;top=0;left=0;bottom=0;right=0;align=left;spacingLeft=6;fontStyle=5;overflow=hidden;fillColor=#f5f5f5;fontColor=#333333;strokeColor=#666666;" parent="nS6iPJSSFPPUDI0pfMjD-30" vertex="1">
          <mxGeometry x="118" width="160" height="30" as="geometry">
            <mxRectangle width="160" height="30" as="alternateBounds" />
          </mxGeometry>
        </mxCell>
        <mxCell id="CnmkukpoRnF5Mc1D4gRC-27" style="shape=tableRow;horizontal=0;startSize=0;swimlaneHead=0;swimlaneBody=0;fillColor=none;collapsible=0;dropTarget=0;points=[[0,0.5],[1,0.5]];portConstraint=eastwest;top=0;left=0;right=0;bottom=0;" parent="nS6iPJSSFPPUDI0pfMjD-29" vertex="1">
          <mxGeometry y="60" width="278" height="30" as="geometry" />
        </mxCell>
        <mxCell id="CnmkukpoRnF5Mc1D4gRC-28" value="FK" style="shape=partialRectangle;connectable=0;top=0;left=0;bottom=0;right=0;editable=1;overflow=hidden;fillColor=#f5f5f5;fontColor=#333333;strokeColor=#666666;" parent="CnmkukpoRnF5Mc1D4gRC-27" vertex="1">
          <mxGeometry width="118" height="30" as="geometry">
            <mxRectangle width="118" height="30" as="alternateBounds" />
          </mxGeometry>
        </mxCell>
        <mxCell id="CnmkukpoRnF5Mc1D4gRC-29" value="gym_id" style="shape=partialRectangle;connectable=0;top=0;left=0;bottom=0;right=0;align=left;spacingLeft=6;overflow=hidden;fillColor=#f5f5f5;fontColor=#333333;strokeColor=#666666;" parent="CnmkukpoRnF5Mc1D4gRC-27" vertex="1">
          <mxGeometry x="118" width="160" height="30" as="geometry">
            <mxRectangle width="160" height="30" as="alternateBounds" />
          </mxGeometry>
        </mxCell>
        <mxCell id="nS6iPJSSFPPUDI0pfMjD-33" style="shape=tableRow;horizontal=0;startSize=0;swimlaneHead=0;swimlaneBody=0;fillColor=none;collapsible=0;dropTarget=0;points=[[0,0.5],[1,0.5]];portConstraint=eastwest;top=0;left=0;right=0;bottom=0;" parent="nS6iPJSSFPPUDI0pfMjD-29" vertex="1">
          <mxGeometry y="90" width="278" height="30" as="geometry" />
        </mxCell>
        <mxCell id="nS6iPJSSFPPUDI0pfMjD-34" value="varchar(256)" style="shape=partialRectangle;connectable=0;top=0;left=0;bottom=0;right=0;editable=1;overflow=hidden;fillColor=#f5f5f5;fontColor=#333333;strokeColor=#666666;" parent="nS6iPJSSFPPUDI0pfMjD-33" vertex="1">
          <mxGeometry width="118" height="30" as="geometry">
            <mxRectangle width="118" height="30" as="alternateBounds" />
          </mxGeometry>
        </mxCell>
        <mxCell id="nS6iPJSSFPPUDI0pfMjD-35" value="name" style="shape=partialRectangle;connectable=0;top=0;left=0;bottom=0;right=0;align=left;spacingLeft=6;overflow=hidden;fillColor=#f5f5f5;fontColor=#333333;strokeColor=#666666;" parent="nS6iPJSSFPPUDI0pfMjD-33" vertex="1">
          <mxGeometry x="118" width="160" height="30" as="geometry">
            <mxRectangle width="160" height="30" as="alternateBounds" />
          </mxGeometry>
        </mxCell>
        <mxCell id="9rMzkn_qYGO-F2BWBrdG-1" style="shape=tableRow;horizontal=0;startSize=0;swimlaneHead=0;swimlaneBody=0;fillColor=none;collapsible=0;dropTarget=0;points=[[0,0.5],[1,0.5]];portConstraint=eastwest;top=0;left=0;right=0;bottom=0;" parent="nS6iPJSSFPPUDI0pfMjD-29" vertex="1">
          <mxGeometry y="120" width="278" height="30" as="geometry" />
        </mxCell>
        <mxCell id="9rMzkn_qYGO-F2BWBrdG-2" value="int" style="shape=partialRectangle;connectable=0;top=0;left=0;bottom=0;right=0;editable=1;overflow=hidden;fillColor=#f5f5f5;fontColor=#333333;strokeColor=#666666;" parent="9rMzkn_qYGO-F2BWBrdG-1" vertex="1">
          <mxGeometry width="118" height="30" as="geometry">
            <mxRectangle width="118" height="30" as="alternateBounds" />
          </mxGeometry>
        </mxCell>
        <mxCell id="9rMzkn_qYGO-F2BWBrdG-3" value="RG" style="shape=partialRectangle;connectable=0;top=0;left=0;bottom=0;right=0;align=left;spacingLeft=6;overflow=hidden;fillColor=#f5f5f5;fontColor=#333333;strokeColor=#666666;" parent="9rMzkn_qYGO-F2BWBrdG-1" vertex="1">
          <mxGeometry x="118" width="160" height="30" as="geometry">
            <mxRectangle width="160" height="30" as="alternateBounds" />
          </mxGeometry>
        </mxCell>
        <mxCell id="9rMzkn_qYGO-F2BWBrdG-4" style="shape=tableRow;horizontal=0;startSize=0;swimlaneHead=0;swimlaneBody=0;fillColor=none;collapsible=0;dropTarget=0;points=[[0,0.5],[1,0.5]];portConstraint=eastwest;top=0;left=0;right=0;bottom=0;" parent="nS6iPJSSFPPUDI0pfMjD-29" vertex="1">
          <mxGeometry y="150" width="278" height="30" as="geometry" />
        </mxCell>
        <mxCell id="9rMzkn_qYGO-F2BWBrdG-5" value="int" style="shape=partialRectangle;connectable=0;top=0;left=0;bottom=0;right=0;editable=1;overflow=hidden;fillColor=#f5f5f5;fontColor=#333333;strokeColor=#666666;" parent="9rMzkn_qYGO-F2BWBrdG-4" vertex="1">
          <mxGeometry width="118" height="30" as="geometry">
            <mxRectangle width="118" height="30" as="alternateBounds" />
          </mxGeometry>
        </mxCell>
        <mxCell id="9rMzkn_qYGO-F2BWBrdG-6" value="CPF" style="shape=partialRectangle;connectable=0;top=0;left=0;bottom=0;right=0;align=left;spacingLeft=6;overflow=hidden;fillColor=#f5f5f5;fontColor=#333333;strokeColor=#666666;" parent="9rMzkn_qYGO-F2BWBrdG-4" vertex="1">
          <mxGeometry x="118" width="160" height="30" as="geometry">
            <mxRectangle width="160" height="30" as="alternateBounds" />
          </mxGeometry>
        </mxCell>
        <mxCell id="9rMzkn_qYGO-F2BWBrdG-7" style="shape=tableRow;horizontal=0;startSize=0;swimlaneHead=0;swimlaneBody=0;fillColor=none;collapsible=0;dropTarget=0;points=[[0,0.5],[1,0.5]];portConstraint=eastwest;top=0;left=0;right=0;bottom=0;" parent="nS6iPJSSFPPUDI0pfMjD-29" vertex="1">
          <mxGeometry y="180" width="278" height="30" as="geometry" />
        </mxCell>
        <mxCell id="9rMzkn_qYGO-F2BWBrdG-8" value="decimal(10,2)" style="shape=partialRectangle;connectable=0;top=0;left=0;bottom=0;right=0;editable=1;overflow=hidden;fillColor=#f5f5f5;fontColor=#333333;strokeColor=#666666;" parent="9rMzkn_qYGO-F2BWBrdG-7" vertex="1">
          <mxGeometry width="118" height="30" as="geometry">
            <mxRectangle width="118" height="30" as="alternateBounds" />
          </mxGeometry>
        </mxCell>
        <mxCell id="9rMzkn_qYGO-F2BWBrdG-9" value="weight" style="shape=partialRectangle;connectable=0;top=0;left=0;bottom=0;right=0;align=left;spacingLeft=6;overflow=hidden;fillColor=#f5f5f5;fontColor=#333333;strokeColor=#666666;" parent="9rMzkn_qYGO-F2BWBrdG-7" vertex="1">
          <mxGeometry x="118" width="160" height="30" as="geometry">
            <mxRectangle width="160" height="30" as="alternateBounds" />
          </mxGeometry>
        </mxCell>
        <mxCell id="9rMzkn_qYGO-F2BWBrdG-10" style="shape=tableRow;horizontal=0;startSize=0;swimlaneHead=0;swimlaneBody=0;fillColor=none;collapsible=0;dropTarget=0;points=[[0,0.5],[1,0.5]];portConstraint=eastwest;top=0;left=0;right=0;bottom=0;" parent="nS6iPJSSFPPUDI0pfMjD-29" vertex="1">
          <mxGeometry y="210" width="278" height="30" as="geometry" />
        </mxCell>
        <mxCell id="9rMzkn_qYGO-F2BWBrdG-11" value="decimal(10,2)" style="shape=partialRectangle;connectable=0;top=0;left=0;bottom=0;right=0;editable=1;overflow=hidden;fillColor=#f5f5f5;fontColor=#333333;strokeColor=#666666;" parent="9rMzkn_qYGO-F2BWBrdG-10" vertex="1">
          <mxGeometry width="118" height="30" as="geometry">
            <mxRectangle width="118" height="30" as="alternateBounds" />
          </mxGeometry>
        </mxCell>
        <mxCell id="9rMzkn_qYGO-F2BWBrdG-12" value="height" style="shape=partialRectangle;connectable=0;top=0;left=0;bottom=0;right=0;align=left;spacingLeft=6;overflow=hidden;fillColor=#f5f5f5;fontColor=#333333;strokeColor=#666666;" parent="9rMzkn_qYGO-F2BWBrdG-10" vertex="1">
          <mxGeometry x="118" width="160" height="30" as="geometry">
            <mxRectangle width="160" height="30" as="alternateBounds" />
          </mxGeometry>
        </mxCell>
        <mxCell id="nS6iPJSSFPPUDI0pfMjD-36" value="" style="shape=tableRow;horizontal=0;startSize=0;swimlaneHead=0;swimlaneBody=0;fillColor=none;collapsible=0;dropTarget=0;points=[[0,0.5],[1,0.5]];portConstraint=eastwest;top=0;left=0;right=0;bottom=0;" parent="nS6iPJSSFPPUDI0pfMjD-29" vertex="1">
          <mxGeometry y="240" width="278" height="30" as="geometry" />
        </mxCell>
        <mxCell id="nS6iPJSSFPPUDI0pfMjD-37" value="varchar(128)" style="shape=partialRectangle;connectable=0;top=0;left=0;bottom=0;right=0;editable=1;overflow=hidden;fillColor=#f5f5f5;fontColor=#333333;strokeColor=#666666;" parent="nS6iPJSSFPPUDI0pfMjD-36" vertex="1">
          <mxGeometry width="118" height="30" as="geometry">
            <mxRectangle width="118" height="30" as="alternateBounds" />
          </mxGeometry>
        </mxCell>
        <mxCell id="nS6iPJSSFPPUDI0pfMjD-38" value="email" style="shape=partialRectangle;connectable=0;top=0;left=0;bottom=0;right=0;align=left;spacingLeft=6;overflow=hidden;fillColor=#f5f5f5;fontColor=#333333;strokeColor=#666666;" parent="nS6iPJSSFPPUDI0pfMjD-36" vertex="1">
          <mxGeometry x="118" width="160" height="30" as="geometry">
            <mxRectangle width="160" height="30" as="alternateBounds" />
          </mxGeometry>
        </mxCell>
        <mxCell id="nS6iPJSSFPPUDI0pfMjD-39" value="" style="shape=tableRow;horizontal=0;startSize=0;swimlaneHead=0;swimlaneBody=0;fillColor=none;collapsible=0;dropTarget=0;points=[[0,0.5],[1,0.5]];portConstraint=eastwest;top=0;left=0;right=0;bottom=0;" parent="nS6iPJSSFPPUDI0pfMjD-29" vertex="1">
          <mxGeometry y="270" width="278" height="30" as="geometry" />
        </mxCell>
        <mxCell id="nS6iPJSSFPPUDI0pfMjD-40" value="varchar(256)" style="shape=partialRectangle;connectable=0;top=0;left=0;bottom=0;right=0;editable=1;overflow=hidden;fillColor=#f5f5f5;fontColor=#333333;strokeColor=#666666;" parent="nS6iPJSSFPPUDI0pfMjD-39" vertex="1">
          <mxGeometry width="118" height="30" as="geometry">
            <mxRectangle width="118" height="30" as="alternateBounds" />
          </mxGeometry>
        </mxCell>
        <mxCell id="nS6iPJSSFPPUDI0pfMjD-41" value="password" style="shape=partialRectangle;connectable=0;top=0;left=0;bottom=0;right=0;align=left;spacingLeft=6;overflow=hidden;fillColor=#f5f5f5;fontColor=#333333;strokeColor=#666666;" parent="nS6iPJSSFPPUDI0pfMjD-39" vertex="1">
          <mxGeometry x="118" width="160" height="30" as="geometry">
            <mxRectangle width="160" height="30" as="alternateBounds" />
          </mxGeometry>
        </mxCell>
        <mxCell id="nS6iPJSSFPPUDI0pfMjD-42" value="" style="shape=tableRow;horizontal=0;startSize=0;swimlaneHead=0;swimlaneBody=0;fillColor=none;collapsible=0;dropTarget=0;points=[[0,0.5],[1,0.5]];portConstraint=eastwest;top=0;left=0;right=0;bottom=0;" parent="nS6iPJSSFPPUDI0pfMjD-29" vertex="1">
          <mxGeometry y="300" width="278" height="30" as="geometry" />
        </mxCell>
        <mxCell id="nS6iPJSSFPPUDI0pfMjD-43" value="varchar(128)" style="shape=partialRectangle;connectable=0;top=0;left=0;bottom=0;right=0;editable=1;overflow=hidden;fillColor=#f5f5f5;fontColor=#333333;strokeColor=#666666;" parent="nS6iPJSSFPPUDI0pfMjD-42" vertex="1">
          <mxGeometry width="118" height="30" as="geometry">
            <mxRectangle width="118" height="30" as="alternateBounds" />
          </mxGeometry>
        </mxCell>
        <mxCell id="nS6iPJSSFPPUDI0pfMjD-44" value="state" style="shape=partialRectangle;connectable=0;top=0;left=0;bottom=0;right=0;align=left;spacingLeft=6;overflow=hidden;fillColor=#f5f5f5;fontColor=#333333;strokeColor=#666666;" parent="nS6iPJSSFPPUDI0pfMjD-42" vertex="1">
          <mxGeometry x="118" width="160" height="30" as="geometry">
            <mxRectangle width="160" height="30" as="alternateBounds" />
          </mxGeometry>
        </mxCell>
        <mxCell id="nS6iPJSSFPPUDI0pfMjD-45" style="shape=tableRow;horizontal=0;startSize=0;swimlaneHead=0;swimlaneBody=0;fillColor=none;collapsible=0;dropTarget=0;points=[[0,0.5],[1,0.5]];portConstraint=eastwest;top=0;left=0;right=0;bottom=0;" parent="nS6iPJSSFPPUDI0pfMjD-29" vertex="1">
          <mxGeometry y="330" width="278" height="30" as="geometry" />
        </mxCell>
        <mxCell id="nS6iPJSSFPPUDI0pfMjD-46" value="varchar(128)" style="shape=partialRectangle;connectable=0;top=0;left=0;bottom=0;right=0;editable=1;overflow=hidden;fillColor=#f5f5f5;fontColor=#333333;strokeColor=#666666;" parent="nS6iPJSSFPPUDI0pfMjD-45" vertex="1">
          <mxGeometry width="118" height="30" as="geometry">
            <mxRectangle width="118" height="30" as="alternateBounds" />
          </mxGeometry>
        </mxCell>
        <mxCell id="nS6iPJSSFPPUDI0pfMjD-47" value="city" style="shape=partialRectangle;connectable=0;top=0;left=0;bottom=0;right=0;align=left;spacingLeft=6;overflow=hidden;fillColor=#f5f5f5;fontColor=#333333;strokeColor=#666666;" parent="nS6iPJSSFPPUDI0pfMjD-45" vertex="1">
          <mxGeometry x="118" width="160" height="30" as="geometry">
            <mxRectangle width="160" height="30" as="alternateBounds" />
          </mxGeometry>
        </mxCell>
        <mxCell id="nS6iPJSSFPPUDI0pfMjD-48" style="shape=tableRow;horizontal=0;startSize=0;swimlaneHead=0;swimlaneBody=0;fillColor=none;collapsible=0;dropTarget=0;points=[[0,0.5],[1,0.5]];portConstraint=eastwest;top=0;left=0;right=0;bottom=0;" parent="nS6iPJSSFPPUDI0pfMjD-29" vertex="1">
          <mxGeometry y="360" width="278" height="30" as="geometry" />
        </mxCell>
        <mxCell id="nS6iPJSSFPPUDI0pfMjD-49" value="varchar(256)" style="shape=partialRectangle;connectable=0;top=0;left=0;bottom=0;right=0;editable=1;overflow=hidden;fillColor=#f5f5f5;fontColor=#333333;strokeColor=#666666;" parent="nS6iPJSSFPPUDI0pfMjD-48" vertex="1">
          <mxGeometry width="118" height="30" as="geometry">
            <mxRectangle width="118" height="30" as="alternateBounds" />
          </mxGeometry>
        </mxCell>
        <mxCell id="nS6iPJSSFPPUDI0pfMjD-50" value="street   " style="shape=partialRectangle;connectable=0;top=0;left=0;bottom=0;right=0;align=left;spacingLeft=6;overflow=hidden;fillColor=#f5f5f5;fontColor=#333333;strokeColor=#666666;" parent="nS6iPJSSFPPUDI0pfMjD-48" vertex="1">
          <mxGeometry x="118" width="160" height="30" as="geometry">
            <mxRectangle width="160" height="30" as="alternateBounds" />
          </mxGeometry>
        </mxCell>
        <mxCell id="nS6iPJSSFPPUDI0pfMjD-51" style="shape=tableRow;horizontal=0;startSize=0;swimlaneHead=0;swimlaneBody=0;fillColor=none;collapsible=0;dropTarget=0;points=[[0,0.5],[1,0.5]];portConstraint=eastwest;top=0;left=0;right=0;bottom=0;" parent="nS6iPJSSFPPUDI0pfMjD-29" vertex="1">
          <mxGeometry y="390" width="278" height="30" as="geometry" />
        </mxCell>
        <mxCell id="nS6iPJSSFPPUDI0pfMjD-52" value="varchar(32)" style="shape=partialRectangle;connectable=0;top=0;left=0;bottom=0;right=0;editable=1;overflow=hidden;fillColor=#f5f5f5;fontColor=#333333;strokeColor=#666666;" parent="nS6iPJSSFPPUDI0pfMjD-51" vertex="1">
          <mxGeometry width="118" height="30" as="geometry">
            <mxRectangle width="118" height="30" as="alternateBounds" />
          </mxGeometry>
        </mxCell>
        <mxCell id="nS6iPJSSFPPUDI0pfMjD-53" value="address_number" style="shape=partialRectangle;connectable=0;top=0;left=0;bottom=0;right=0;align=left;spacingLeft=6;overflow=hidden;fillColor=#f5f5f5;fontColor=#333333;strokeColor=#666666;" parent="nS6iPJSSFPPUDI0pfMjD-51" vertex="1">
          <mxGeometry x="118" width="160" height="30" as="geometry">
            <mxRectangle width="160" height="30" as="alternateBounds" />
          </mxGeometry>
        </mxCell>
        <mxCell id="nS6iPJSSFPPUDI0pfMjD-60" value="workouts_plans" style="shape=table;startSize=30;container=1;collapsible=1;childLayout=tableLayout;fixedRows=1;rowLines=0;fontStyle=1;align=center;resizeLast=1;" parent="1" vertex="1">
          <mxGeometry x="2526" y="-263" width="240" height="150" as="geometry" />
        </mxCell>
        <mxCell id="CnmkukpoRnF5Mc1D4gRC-1" value="" style="shape=tableRow;horizontal=0;startSize=0;swimlaneHead=0;swimlaneBody=0;fillColor=none;collapsible=0;dropTarget=0;points=[[0,0.5],[1,0.5]];portConstraint=eastwest;top=0;left=0;right=0;bottom=1;" parent="nS6iPJSSFPPUDI0pfMjD-60" vertex="1">
          <mxGeometry y="30" width="240" height="30" as="geometry" />
        </mxCell>
        <mxCell id="CnmkukpoRnF5Mc1D4gRC-2" value="PK" style="shape=partialRectangle;connectable=0;fillColor=#f5f5f5;top=0;left=0;bottom=0;right=0;fontStyle=1;overflow=hidden;fontColor=#333333;strokeColor=#666666;" parent="CnmkukpoRnF5Mc1D4gRC-1" vertex="1">
          <mxGeometry width="80" height="30" as="geometry">
            <mxRectangle width="80" height="30" as="alternateBounds" />
          </mxGeometry>
        </mxCell>
        <mxCell id="CnmkukpoRnF5Mc1D4gRC-3" value="id" style="shape=partialRectangle;connectable=0;fillColor=#f5f5f5;top=0;left=0;bottom=0;right=0;align=left;spacingLeft=6;fontStyle=5;overflow=hidden;fontColor=#333333;strokeColor=#666666;" parent="CnmkukpoRnF5Mc1D4gRC-1" vertex="1">
          <mxGeometry x="80" width="160" height="30" as="geometry">
            <mxRectangle width="160" height="30" as="alternateBounds" />
          </mxGeometry>
        </mxCell>
        <mxCell id="nS6iPJSSFPPUDI0pfMjD-97" style="shape=tableRow;horizontal=0;startSize=0;swimlaneHead=0;swimlaneBody=0;fillColor=none;collapsible=0;dropTarget=0;points=[[0,0.5],[1,0.5]];portConstraint=eastwest;top=0;left=0;right=0;bottom=0;" parent="nS6iPJSSFPPUDI0pfMjD-60" vertex="1">
          <mxGeometry y="60" width="240" height="30" as="geometry" />
        </mxCell>
        <mxCell id="nS6iPJSSFPPUDI0pfMjD-98" value="FK" style="shape=partialRectangle;connectable=0;fillColor=#f5f5f5;top=0;left=0;bottom=0;right=0;editable=1;overflow=hidden;fontColor=#333333;strokeColor=#666666;" parent="nS6iPJSSFPPUDI0pfMjD-97" vertex="1">
          <mxGeometry width="80" height="30" as="geometry">
            <mxRectangle width="80" height="30" as="alternateBounds" />
          </mxGeometry>
        </mxCell>
        <mxCell id="nS6iPJSSFPPUDI0pfMjD-99" value="employee_id" style="shape=partialRectangle;connectable=0;fillColor=#f5f5f5;top=0;left=0;bottom=0;right=0;align=left;spacingLeft=6;overflow=hidden;fontColor=#333333;strokeColor=#666666;" parent="nS6iPJSSFPPUDI0pfMjD-97" vertex="1">
          <mxGeometry x="80" width="160" height="30" as="geometry">
            <mxRectangle width="160" height="30" as="alternateBounds" />
          </mxGeometry>
        </mxCell>
        <mxCell id="CnmkukpoRnF5Mc1D4gRC-30" style="shape=tableRow;horizontal=0;startSize=0;swimlaneHead=0;swimlaneBody=0;fillColor=none;collapsible=0;dropTarget=0;points=[[0,0.5],[1,0.5]];portConstraint=eastwest;top=0;left=0;right=0;bottom=0;" parent="nS6iPJSSFPPUDI0pfMjD-60" vertex="1">
          <mxGeometry y="90" width="240" height="30" as="geometry" />
        </mxCell>
        <mxCell id="CnmkukpoRnF5Mc1D4gRC-31" value="FK" style="shape=partialRectangle;connectable=0;fillColor=#f5f5f5;top=0;left=0;bottom=0;right=0;editable=1;overflow=hidden;fontColor=#333333;strokeColor=#666666;" parent="CnmkukpoRnF5Mc1D4gRC-30" vertex="1">
          <mxGeometry width="80" height="30" as="geometry">
            <mxRectangle width="80" height="30" as="alternateBounds" />
          </mxGeometry>
        </mxCell>
        <mxCell id="CnmkukpoRnF5Mc1D4gRC-32" value="workout_id" style="shape=partialRectangle;connectable=0;fillColor=#f5f5f5;top=0;left=0;bottom=0;right=0;align=left;spacingLeft=6;overflow=hidden;fontColor=#333333;strokeColor=#666666;" parent="CnmkukpoRnF5Mc1D4gRC-30" vertex="1">
          <mxGeometry x="80" width="160" height="30" as="geometry">
            <mxRectangle width="160" height="30" as="alternateBounds" />
          </mxGeometry>
        </mxCell>
        <mxCell id="nS6iPJSSFPPUDI0pfMjD-64" style="shape=tableRow;horizontal=0;startSize=0;swimlaneHead=0;swimlaneBody=0;fillColor=none;collapsible=0;dropTarget=0;points=[[0,0.5],[1,0.5]];portConstraint=eastwest;top=0;left=0;right=0;bottom=0;" parent="nS6iPJSSFPPUDI0pfMjD-60" vertex="1">
          <mxGeometry y="120" width="240" height="30" as="geometry" />
        </mxCell>
        <mxCell id="nS6iPJSSFPPUDI0pfMjD-65" value="varchar(256)" style="shape=partialRectangle;connectable=0;fillColor=#f5f5f5;top=0;left=0;bottom=0;right=0;editable=1;overflow=hidden;fontColor=#333333;strokeColor=#666666;" parent="nS6iPJSSFPPUDI0pfMjD-64" vertex="1">
          <mxGeometry width="80" height="30" as="geometry">
            <mxRectangle width="80" height="30" as="alternateBounds" />
          </mxGeometry>
        </mxCell>
        <mxCell id="nS6iPJSSFPPUDI0pfMjD-66" value="goal" style="shape=partialRectangle;connectable=0;fillColor=#f5f5f5;top=0;left=0;bottom=0;right=0;align=left;spacingLeft=6;overflow=hidden;fontColor=#333333;strokeColor=#666666;" parent="nS6iPJSSFPPUDI0pfMjD-64" vertex="1">
          <mxGeometry x="80" width="160" height="30" as="geometry">
            <mxRectangle width="160" height="30" as="alternateBounds" />
          </mxGeometry>
        </mxCell>
        <mxCell id="DIrFXB5llvS2kj0vWRAP-5" value="employees" style="shape=table;startSize=27;container=1;collapsible=1;childLayout=tableLayout;fixedRows=1;rowLines=0;fontStyle=1;align=center;resizeLast=1;" parent="1" vertex="1">
          <mxGeometry x="2493" y="200" width="240" height="117" as="geometry" />
        </mxCell>
        <mxCell id="DIrFXB5llvS2kj0vWRAP-6" value="" style="shape=tableRow;horizontal=0;startSize=0;swimlaneHead=0;swimlaneBody=0;fillColor=none;collapsible=0;dropTarget=0;points=[[0,0.5],[1,0.5]];portConstraint=eastwest;top=0;left=0;right=0;bottom=1;" parent="DIrFXB5llvS2kj0vWRAP-5" vertex="1">
          <mxGeometry y="27" width="240" height="30" as="geometry" />
        </mxCell>
        <mxCell id="DIrFXB5llvS2kj0vWRAP-7" value="PK" style="shape=partialRectangle;connectable=0;fillColor=#f5f5f5;top=0;left=0;bottom=0;right=0;fontStyle=1;overflow=hidden;fontColor=#333333;strokeColor=#666666;" parent="DIrFXB5llvS2kj0vWRAP-6" vertex="1">
          <mxGeometry width="80" height="30" as="geometry">
            <mxRectangle width="80" height="30" as="alternateBounds" />
          </mxGeometry>
        </mxCell>
        <mxCell id="DIrFXB5llvS2kj0vWRAP-8" value="id" style="shape=partialRectangle;connectable=0;fillColor=#f5f5f5;top=0;left=0;bottom=0;right=0;align=left;spacingLeft=6;fontStyle=5;overflow=hidden;fontColor=#333333;strokeColor=#666666;" parent="DIrFXB5llvS2kj0vWRAP-6" vertex="1">
          <mxGeometry x="80" width="160" height="30" as="geometry">
            <mxRectangle width="160" height="30" as="alternateBounds" />
          </mxGeometry>
        </mxCell>
        <mxCell id="DIrFXB5llvS2kj0vWRAP-15" style="shape=tableRow;horizontal=0;startSize=0;swimlaneHead=0;swimlaneBody=0;fillColor=none;collapsible=0;dropTarget=0;points=[[0,0.5],[1,0.5]];portConstraint=eastwest;top=0;left=0;right=0;bottom=0;" parent="DIrFXB5llvS2kj0vWRAP-5" vertex="1">
          <mxGeometry y="57" width="240" height="30" as="geometry" />
        </mxCell>
        <mxCell id="DIrFXB5llvS2kj0vWRAP-16" value="varchar(256)" style="shape=partialRectangle;connectable=0;fillColor=#f5f5f5;top=0;left=0;bottom=0;right=0;editable=1;overflow=hidden;fontColor=#333333;strokeColor=#666666;" parent="DIrFXB5llvS2kj0vWRAP-15" vertex="1">
          <mxGeometry width="80" height="30" as="geometry">
            <mxRectangle width="80" height="30" as="alternateBounds" />
          </mxGeometry>
        </mxCell>
        <mxCell id="DIrFXB5llvS2kj0vWRAP-17" value="goal" style="shape=partialRectangle;connectable=0;fillColor=#f5f5f5;top=0;left=0;bottom=0;right=0;align=left;spacingLeft=6;overflow=hidden;fontColor=#333333;strokeColor=#666666;" parent="DIrFXB5llvS2kj0vWRAP-15" vertex="1">
          <mxGeometry x="80" width="160" height="30" as="geometry">
            <mxRectangle width="160" height="30" as="alternateBounds" />
          </mxGeometry>
        </mxCell>
        <mxCell id="DIrFXB5llvS2kj0vWRAP-18" style="shape=tableRow;horizontal=0;startSize=0;swimlaneHead=0;swimlaneBody=0;fillColor=none;collapsible=0;dropTarget=0;points=[[0,0.5],[1,0.5]];portConstraint=eastwest;top=0;left=0;right=0;bottom=0;" parent="DIrFXB5llvS2kj0vWRAP-5" vertex="1">
          <mxGeometry y="87" width="240" height="30" as="geometry" />
        </mxCell>
        <mxCell id="DIrFXB5llvS2kj0vWRAP-19" value="FK" style="shape=partialRectangle;connectable=0;fillColor=#f5f5f5;top=0;left=0;bottom=0;right=0;editable=1;overflow=hidden;fontColor=#333333;strokeColor=#666666;" parent="DIrFXB5llvS2kj0vWRAP-18" vertex="1">
          <mxGeometry width="80" height="30" as="geometry">
            <mxRectangle width="80" height="30" as="alternateBounds" />
          </mxGeometry>
        </mxCell>
        <mxCell id="DIrFXB5llvS2kj0vWRAP-20" value="roll_id" style="shape=partialRectangle;connectable=0;fillColor=#f5f5f5;top=0;left=0;bottom=0;right=0;align=left;spacingLeft=6;overflow=hidden;fontColor=#333333;strokeColor=#666666;" parent="DIrFXB5llvS2kj0vWRAP-18" vertex="1">
          <mxGeometry x="80" width="160" height="30" as="geometry">
            <mxRectangle width="160" height="30" as="alternateBounds" />
          </mxGeometry>
        </mxCell>
        <mxCell id="DIrFXB5llvS2kj0vWRAP-24" value="rolls" style="shape=table;startSize=30;container=1;collapsible=1;childLayout=tableLayout;fixedRows=1;rowLines=0;fontStyle=1;align=center;resizeLast=1;" parent="1" vertex="1">
          <mxGeometry x="2498" y="513" width="290" height="120" as="geometry" />
        </mxCell>
        <mxCell id="DIrFXB5llvS2kj0vWRAP-25" value="" style="shape=tableRow;horizontal=0;startSize=0;swimlaneHead=0;swimlaneBody=0;fillColor=none;collapsible=0;dropTarget=0;points=[[0,0.5],[1,0.5]];portConstraint=eastwest;top=0;left=0;right=0;bottom=1;" parent="DIrFXB5llvS2kj0vWRAP-24" vertex="1">
          <mxGeometry y="30" width="290" height="30" as="geometry" />
        </mxCell>
        <mxCell id="DIrFXB5llvS2kj0vWRAP-26" value="PK" style="shape=partialRectangle;connectable=0;fillColor=#f5f5f5;top=0;left=0;bottom=0;right=0;fontStyle=1;overflow=hidden;fontColor=#333333;strokeColor=#666666;" parent="DIrFXB5llvS2kj0vWRAP-25" vertex="1">
          <mxGeometry width="110" height="30" as="geometry">
            <mxRectangle width="110" height="30" as="alternateBounds" />
          </mxGeometry>
        </mxCell>
        <mxCell id="DIrFXB5llvS2kj0vWRAP-27" value="id" style="shape=partialRectangle;connectable=0;fillColor=#f5f5f5;top=0;left=0;bottom=0;right=0;align=left;spacingLeft=6;fontStyle=5;overflow=hidden;fontColor=#333333;strokeColor=#666666;" parent="DIrFXB5llvS2kj0vWRAP-25" vertex="1">
          <mxGeometry x="110" width="180" height="30" as="geometry">
            <mxRectangle width="180" height="30" as="alternateBounds" />
          </mxGeometry>
        </mxCell>
        <mxCell id="DIrFXB5llvS2kj0vWRAP-28" style="shape=tableRow;horizontal=0;startSize=0;swimlaneHead=0;swimlaneBody=0;fillColor=none;collapsible=0;dropTarget=0;points=[[0,0.5],[1,0.5]];portConstraint=eastwest;top=0;left=0;right=0;bottom=0;" parent="DIrFXB5llvS2kj0vWRAP-24" vertex="1">
          <mxGeometry y="60" width="290" height="30" as="geometry" />
        </mxCell>
        <mxCell id="DIrFXB5llvS2kj0vWRAP-29" value="varchar(128)" style="shape=partialRectangle;connectable=0;fillColor=#f5f5f5;top=0;left=0;bottom=0;right=0;editable=1;overflow=hidden;fontColor=#333333;strokeColor=#666666;" parent="DIrFXB5llvS2kj0vWRAP-28" vertex="1">
          <mxGeometry width="110" height="30" as="geometry">
            <mxRectangle width="110" height="30" as="alternateBounds" />
          </mxGeometry>
        </mxCell>
        <mxCell id="DIrFXB5llvS2kj0vWRAP-30" value="title" style="shape=partialRectangle;connectable=0;fillColor=#f5f5f5;top=0;left=0;bottom=0;right=0;align=left;spacingLeft=6;overflow=hidden;fontColor=#333333;strokeColor=#666666;" parent="DIrFXB5llvS2kj0vWRAP-28" vertex="1">
          <mxGeometry x="110" width="180" height="30" as="geometry">
            <mxRectangle width="180" height="30" as="alternateBounds" />
          </mxGeometry>
        </mxCell>
        <mxCell id="DIrFXB5llvS2kj0vWRAP-31" style="shape=tableRow;horizontal=0;startSize=0;swimlaneHead=0;swimlaneBody=0;fillColor=none;collapsible=0;dropTarget=0;points=[[0,0.5],[1,0.5]];portConstraint=eastwest;top=0;left=0;right=0;bottom=0;" parent="DIrFXB5llvS2kj0vWRAP-24" vertex="1">
          <mxGeometry y="90" width="290" height="30" as="geometry" />
        </mxCell>
        <mxCell id="DIrFXB5llvS2kj0vWRAP-32" value="varchar(64)" style="shape=partialRectangle;connectable=0;fillColor=#f5f5f5;top=0;left=0;bottom=0;right=0;editable=1;overflow=hidden;fontColor=#333333;strokeColor=#666666;" parent="DIrFXB5llvS2kj0vWRAP-31" vertex="1">
          <mxGeometry width="110" height="30" as="geometry">
            <mxRectangle width="110" height="30" as="alternateBounds" />
          </mxGeometry>
        </mxCell>
        <mxCell id="DIrFXB5llvS2kj0vWRAP-33" value="access_level " style="shape=partialRectangle;connectable=0;fillColor=#f5f5f5;top=0;left=0;bottom=0;right=0;align=left;spacingLeft=6;overflow=hidden;fontColor=#333333;strokeColor=#666666;" parent="DIrFXB5llvS2kj0vWRAP-31" vertex="1">
          <mxGeometry x="110" width="180" height="30" as="geometry">
            <mxRectangle width="180" height="30" as="alternateBounds" />
          </mxGeometry>
        </mxCell>
        <mxCell id="DIrFXB5llvS2kj0vWRAP-44" value="workouts" style="shape=table;startSize=30;container=1;collapsible=1;childLayout=tableLayout;fixedRows=1;rowLines=0;fontStyle=1;align=center;resizeLast=1;" parent="1" vertex="1">
          <mxGeometry x="3372" y="270" width="240" height="120" as="geometry" />
        </mxCell>
        <mxCell id="DIrFXB5llvS2kj0vWRAP-45" value="" style="shape=tableRow;horizontal=0;startSize=0;swimlaneHead=0;swimlaneBody=0;fillColor=none;collapsible=0;dropTarget=0;points=[[0,0.5],[1,0.5]];portConstraint=eastwest;top=0;left=0;right=0;bottom=1;" parent="DIrFXB5llvS2kj0vWRAP-44" vertex="1">
          <mxGeometry y="30" width="240" height="30" as="geometry" />
        </mxCell>
        <mxCell id="DIrFXB5llvS2kj0vWRAP-46" value="PK" style="shape=partialRectangle;connectable=0;fillColor=#f5f5f5;top=0;left=0;bottom=0;right=0;fontStyle=1;overflow=hidden;fontColor=#333333;strokeColor=#666666;" parent="DIrFXB5llvS2kj0vWRAP-45" vertex="1">
          <mxGeometry width="80" height="30" as="geometry">
            <mxRectangle width="80" height="30" as="alternateBounds" />
          </mxGeometry>
        </mxCell>
        <mxCell id="DIrFXB5llvS2kj0vWRAP-47" value="id" style="shape=partialRectangle;connectable=0;fillColor=#f5f5f5;top=0;left=0;bottom=0;right=0;align=left;spacingLeft=6;fontStyle=5;overflow=hidden;fontColor=#333333;strokeColor=#666666;" parent="DIrFXB5llvS2kj0vWRAP-45" vertex="1">
          <mxGeometry x="80" width="160" height="30" as="geometry">
            <mxRectangle width="160" height="30" as="alternateBounds" />
          </mxGeometry>
        </mxCell>
        <mxCell id="DIrFXB5llvS2kj0vWRAP-51" style="shape=tableRow;horizontal=0;startSize=0;swimlaneHead=0;swimlaneBody=0;fillColor=none;collapsible=0;dropTarget=0;points=[[0,0.5],[1,0.5]];portConstraint=eastwest;top=0;left=0;right=0;bottom=0;" parent="DIrFXB5llvS2kj0vWRAP-44" vertex="1">
          <mxGeometry y="60" width="240" height="30" as="geometry" />
        </mxCell>
        <mxCell id="DIrFXB5llvS2kj0vWRAP-52" value="FK" style="shape=partialRectangle;connectable=0;fillColor=#f5f5f5;top=0;left=0;bottom=0;right=0;editable=1;overflow=hidden;fontColor=#333333;strokeColor=#666666;" parent="DIrFXB5llvS2kj0vWRAP-51" vertex="1">
          <mxGeometry width="80" height="30" as="geometry">
            <mxRectangle width="80" height="30" as="alternateBounds" />
          </mxGeometry>
        </mxCell>
        <mxCell id="DIrFXB5llvS2kj0vWRAP-53" value="creator_id (employee_id)" style="shape=partialRectangle;connectable=0;fillColor=#f5f5f5;top=0;left=0;bottom=0;right=0;align=left;spacingLeft=6;overflow=hidden;fontColor=#333333;strokeColor=#666666;" parent="DIrFXB5llvS2kj0vWRAP-51" vertex="1">
          <mxGeometry x="80" width="160" height="30" as="geometry">
            <mxRectangle width="160" height="30" as="alternateBounds" />
          </mxGeometry>
        </mxCell>
        <mxCell id="DIrFXB5llvS2kj0vWRAP-54" style="shape=tableRow;horizontal=0;startSize=0;swimlaneHead=0;swimlaneBody=0;fillColor=none;collapsible=0;dropTarget=0;points=[[0,0.5],[1,0.5]];portConstraint=eastwest;top=0;left=0;right=0;bottom=0;" parent="DIrFXB5llvS2kj0vWRAP-44" vertex="1">
          <mxGeometry y="90" width="240" height="30" as="geometry" />
        </mxCell>
        <mxCell id="DIrFXB5llvS2kj0vWRAP-55" value="varchar(256)" style="shape=partialRectangle;connectable=0;fillColor=#f5f5f5;top=0;left=0;bottom=0;right=0;editable=1;overflow=hidden;fontColor=#333333;strokeColor=#666666;" parent="DIrFXB5llvS2kj0vWRAP-54" vertex="1">
          <mxGeometry width="80" height="30" as="geometry">
            <mxRectangle width="80" height="30" as="alternateBounds" />
          </mxGeometry>
        </mxCell>
        <mxCell id="DIrFXB5llvS2kj0vWRAP-56" value="goal" style="shape=partialRectangle;connectable=0;fillColor=#f5f5f5;top=0;left=0;bottom=0;right=0;align=left;spacingLeft=6;overflow=hidden;fontColor=#333333;strokeColor=#666666;" parent="DIrFXB5llvS2kj0vWRAP-54" vertex="1">
          <mxGeometry x="80" width="160" height="30" as="geometry">
            <mxRectangle width="160" height="30" as="alternateBounds" />
          </mxGeometry>
        </mxCell>
        <mxCell id="DIrFXB5llvS2kj0vWRAP-63" value="subscription_plans" style="shape=table;startSize=30;container=1;collapsible=1;childLayout=tableLayout;fixedRows=1;rowLines=0;fontStyle=1;align=center;resizeLast=1;" parent="1" vertex="1">
          <mxGeometry x="739" y="-279" width="240" height="122" as="geometry" />
        </mxCell>
        <mxCell id="DIrFXB5llvS2kj0vWRAP-64" value="" style="shape=tableRow;horizontal=0;startSize=0;swimlaneHead=0;swimlaneBody=0;fillColor=none;collapsible=0;dropTarget=0;points=[[0,0.5],[1,0.5]];portConstraint=eastwest;top=0;left=0;right=0;bottom=1;" parent="DIrFXB5llvS2kj0vWRAP-63" vertex="1">
          <mxGeometry y="30" width="240" height="30" as="geometry" />
        </mxCell>
        <mxCell id="DIrFXB5llvS2kj0vWRAP-65" value="PK" style="shape=partialRectangle;connectable=0;top=0;left=0;bottom=0;right=0;fontStyle=1;overflow=hidden;fillColor=#f5f5f5;fontColor=#333333;strokeColor=#666666;" parent="DIrFXB5llvS2kj0vWRAP-64" vertex="1">
          <mxGeometry width="80" height="30" as="geometry">
            <mxRectangle width="80" height="30" as="alternateBounds" />
          </mxGeometry>
        </mxCell>
        <mxCell id="DIrFXB5llvS2kj0vWRAP-66" value="id" style="shape=partialRectangle;connectable=0;top=0;left=0;bottom=0;right=0;align=left;spacingLeft=6;fontStyle=5;overflow=hidden;fillColor=#f5f5f5;fontColor=#333333;strokeColor=#666666;" parent="DIrFXB5llvS2kj0vWRAP-64" vertex="1">
          <mxGeometry x="80" width="160" height="30" as="geometry">
            <mxRectangle width="160" height="30" as="alternateBounds" />
          </mxGeometry>
        </mxCell>
        <mxCell id="DIrFXB5llvS2kj0vWRAP-67" style="shape=tableRow;horizontal=0;startSize=0;swimlaneHead=0;swimlaneBody=0;fillColor=none;collapsible=0;dropTarget=0;points=[[0,0.5],[1,0.5]];portConstraint=eastwest;top=0;left=0;right=0;bottom=0;" parent="DIrFXB5llvS2kj0vWRAP-63" vertex="1">
          <mxGeometry y="60" width="240" height="30" as="geometry" />
        </mxCell>
        <mxCell id="DIrFXB5llvS2kj0vWRAP-68" value="varchar(256)" style="shape=partialRectangle;connectable=0;top=0;left=0;bottom=0;right=0;editable=1;overflow=hidden;fillColor=#f5f5f5;fontColor=#333333;strokeColor=#666666;" parent="DIrFXB5llvS2kj0vWRAP-67" vertex="1">
          <mxGeometry width="80" height="30" as="geometry">
            <mxRectangle width="80" height="30" as="alternateBounds" />
          </mxGeometry>
        </mxCell>
        <mxCell id="DIrFXB5llvS2kj0vWRAP-69" value="title" style="shape=partialRectangle;connectable=0;top=0;left=0;bottom=0;right=0;align=left;spacingLeft=6;overflow=hidden;fillColor=#f5f5f5;fontColor=#333333;strokeColor=#666666;" parent="DIrFXB5llvS2kj0vWRAP-67" vertex="1">
          <mxGeometry x="80" width="160" height="30" as="geometry">
            <mxRectangle width="160" height="30" as="alternateBounds" />
          </mxGeometry>
        </mxCell>
        <mxCell id="DIrFXB5llvS2kj0vWRAP-70" style="shape=tableRow;horizontal=0;startSize=0;swimlaneHead=0;swimlaneBody=0;fillColor=none;collapsible=0;dropTarget=0;points=[[0,0.5],[1,0.5]];portConstraint=eastwest;top=0;left=0;right=0;bottom=0;" parent="DIrFXB5llvS2kj0vWRAP-63" vertex="1">
          <mxGeometry y="90" width="240" height="30" as="geometry" />
        </mxCell>
        <mxCell id="DIrFXB5llvS2kj0vWRAP-71" value="decimal(10,2)" style="shape=partialRectangle;connectable=0;top=0;left=0;bottom=0;right=0;editable=1;overflow=hidden;fillColor=#f5f5f5;fontColor=#333333;strokeColor=#666666;" parent="DIrFXB5llvS2kj0vWRAP-70" vertex="1">
          <mxGeometry width="80" height="30" as="geometry">
            <mxRectangle width="80" height="30" as="alternateBounds" />
          </mxGeometry>
        </mxCell>
        <mxCell id="DIrFXB5llvS2kj0vWRAP-72" value="price" style="shape=partialRectangle;connectable=0;top=0;left=0;bottom=0;right=0;align=left;spacingLeft=6;overflow=hidden;fillColor=#f5f5f5;fontColor=#333333;strokeColor=#666666;" parent="DIrFXB5llvS2kj0vWRAP-70" vertex="1">
          <mxGeometry x="80" width="160" height="30" as="geometry">
            <mxRectangle width="160" height="30" as="alternateBounds" />
          </mxGeometry>
        </mxCell>
        <mxCell id="DIrFXB5llvS2kj0vWRAP-83" value="subscriptions" style="shape=table;startSize=30;container=1;collapsible=1;childLayout=tableLayout;fixedRows=1;rowLines=0;fontStyle=1;align=center;resizeLast=1;fillColor=#f8cecc;strokeColor=#b85450;" parent="1" vertex="1">
          <mxGeometry x="1128" y="-290" width="240" height="150" as="geometry" />
        </mxCell>
        <mxCell id="DIrFXB5llvS2kj0vWRAP-84" value="" style="shape=tableRow;horizontal=0;startSize=0;swimlaneHead=0;swimlaneBody=0;fillColor=none;collapsible=0;dropTarget=0;points=[[0,0.5],[1,0.5]];portConstraint=eastwest;top=0;left=0;right=0;bottom=1;" parent="DIrFXB5llvS2kj0vWRAP-83" vertex="1">
          <mxGeometry y="30" width="240" height="30" as="geometry" />
        </mxCell>
        <mxCell id="DIrFXB5llvS2kj0vWRAP-85" value="PK" style="shape=partialRectangle;connectable=0;top=0;left=0;bottom=0;right=0;fontStyle=1;overflow=hidden;fillColor=#f5f5f5;fontColor=#333333;strokeColor=#666666;" parent="DIrFXB5llvS2kj0vWRAP-84" vertex="1">
          <mxGeometry width="80" height="30" as="geometry">
            <mxRectangle width="80" height="30" as="alternateBounds" />
          </mxGeometry>
        </mxCell>
        <mxCell id="DIrFXB5llvS2kj0vWRAP-86" value="id" style="shape=partialRectangle;connectable=0;top=0;left=0;bottom=0;right=0;align=left;spacingLeft=6;fontStyle=5;overflow=hidden;fillColor=#f5f5f5;fontColor=#333333;strokeColor=#666666;" parent="DIrFXB5llvS2kj0vWRAP-84" vertex="1">
          <mxGeometry x="80" width="160" height="30" as="geometry">
            <mxRectangle width="160" height="30" as="alternateBounds" />
          </mxGeometry>
        </mxCell>
        <mxCell id="DIrFXB5llvS2kj0vWRAP-87" style="shape=tableRow;horizontal=0;startSize=0;swimlaneHead=0;swimlaneBody=0;fillColor=none;collapsible=0;dropTarget=0;points=[[0,0.5],[1,0.5]];portConstraint=eastwest;top=0;left=0;right=0;bottom=0;" parent="DIrFXB5llvS2kj0vWRAP-83" vertex="1">
          <mxGeometry y="60" width="240" height="30" as="geometry" />
        </mxCell>
        <mxCell id="DIrFXB5llvS2kj0vWRAP-88" value="FK" style="shape=partialRectangle;connectable=0;top=0;left=0;bottom=0;right=0;editable=1;overflow=hidden;fillColor=#f5f5f5;fontColor=#333333;strokeColor=#666666;" parent="DIrFXB5llvS2kj0vWRAP-87" vertex="1">
          <mxGeometry width="80" height="30" as="geometry">
            <mxRectangle width="80" height="30" as="alternateBounds" />
          </mxGeometry>
        </mxCell>
        <mxCell id="DIrFXB5llvS2kj0vWRAP-89" value="member_id" style="shape=partialRectangle;connectable=0;top=0;left=0;bottom=0;right=0;align=left;spacingLeft=6;overflow=hidden;fillColor=#f5f5f5;fontColor=#333333;strokeColor=#666666;" parent="DIrFXB5llvS2kj0vWRAP-87" vertex="1">
          <mxGeometry x="80" width="160" height="30" as="geometry">
            <mxRectangle width="160" height="30" as="alternateBounds" />
          </mxGeometry>
        </mxCell>
        <mxCell id="DIrFXB5llvS2kj0vWRAP-90" style="shape=tableRow;horizontal=0;startSize=0;swimlaneHead=0;swimlaneBody=0;fillColor=none;collapsible=0;dropTarget=0;points=[[0,0.5],[1,0.5]];portConstraint=eastwest;top=0;left=0;right=0;bottom=0;" parent="DIrFXB5llvS2kj0vWRAP-83" vertex="1">
          <mxGeometry y="90" width="240" height="30" as="geometry" />
        </mxCell>
        <mxCell id="DIrFXB5llvS2kj0vWRAP-91" value="FK" style="shape=partialRectangle;connectable=0;top=0;left=0;bottom=0;right=0;editable=1;overflow=hidden;fillColor=#f5f5f5;fontColor=#333333;strokeColor=#666666;" parent="DIrFXB5llvS2kj0vWRAP-90" vertex="1">
          <mxGeometry width="80" height="30" as="geometry">
            <mxRectangle width="80" height="30" as="alternateBounds" />
          </mxGeometry>
        </mxCell>
        <mxCell id="DIrFXB5llvS2kj0vWRAP-92" value="plan_id" style="shape=partialRectangle;connectable=0;top=0;left=0;bottom=0;right=0;align=left;spacingLeft=6;overflow=hidden;fillColor=#f5f5f5;fontColor=#333333;strokeColor=#666666;" parent="DIrFXB5llvS2kj0vWRAP-90" vertex="1">
          <mxGeometry x="80" width="160" height="30" as="geometry">
            <mxRectangle width="160" height="30" as="alternateBounds" />
          </mxGeometry>
        </mxCell>
        <mxCell id="DIrFXB5llvS2kj0vWRAP-93" style="shape=tableRow;horizontal=0;startSize=0;swimlaneHead=0;swimlaneBody=0;fillColor=none;collapsible=0;dropTarget=0;points=[[0,0.5],[1,0.5]];portConstraint=eastwest;top=0;left=0;right=0;bottom=0;" parent="DIrFXB5llvS2kj0vWRAP-83" vertex="1">
          <mxGeometry y="120" width="240" height="30" as="geometry" />
        </mxCell>
        <mxCell id="DIrFXB5llvS2kj0vWRAP-94" value="decimal" style="shape=partialRectangle;connectable=0;top=0;left=0;bottom=0;right=0;editable=1;overflow=hidden;fillColor=#f5f5f5;fontColor=#333333;strokeColor=#666666;" parent="DIrFXB5llvS2kj0vWRAP-93" vertex="1">
          <mxGeometry width="80" height="30" as="geometry">
            <mxRectangle width="80" height="30" as="alternateBounds" />
          </mxGeometry>
        </mxCell>
        <mxCell id="DIrFXB5llvS2kj0vWRAP-95" value="started_at" style="shape=partialRectangle;connectable=0;top=0;left=0;bottom=0;right=0;align=left;spacingLeft=6;overflow=hidden;fillColor=#f5f5f5;fontColor=#333333;strokeColor=#666666;" parent="DIrFXB5llvS2kj0vWRAP-93" vertex="1">
          <mxGeometry x="80" width="160" height="30" as="geometry">
            <mxRectangle width="160" height="30" as="alternateBounds" />
          </mxGeometry>
        </mxCell>
        <mxCell id="DIrFXB5llvS2kj0vWRAP-103" value="" style="edgeStyle=orthogonalEdgeStyle;fontSize=12;html=1;endArrow=ERoneToMany;rounded=0;exitX=1;exitY=0.5;exitDx=0;exitDy=0;entryX=0.002;entryY=0.851;entryDx=0;entryDy=0;entryPerimeter=0;" parent="1" source="DIrFXB5llvS2kj0vWRAP-67" target="DIrFXB5llvS2kj0vWRAP-87" edge="1">
          <mxGeometry width="100" height="100" relative="1" as="geometry">
            <mxPoint x="1030" y="-92" as="sourcePoint" />
            <mxPoint x="1130" y="-152" as="targetPoint" />
          </mxGeometry>
        </mxCell>
        <mxCell id="DIrFXB5llvS2kj0vWRAP-104" value="" style="edgeStyle=orthogonalEdgeStyle;fontSize=12;html=1;endArrow=ERoneToMany;rounded=0;exitX=0;exitY=0.5;exitDx=0;exitDy=0;entryX=1.003;entryY=0.894;entryDx=0;entryDy=0;entryPerimeter=0;" parent="1" source="9rMzkn_qYGO-F2BWBrdG-10" target="DIrFXB5llvS2kj0vWRAP-87" edge="1">
          <mxGeometry width="100" height="100" relative="1" as="geometry">
            <mxPoint x="1510" y="-271.51000000000005" as="sourcePoint" />
            <mxPoint x="1692.6399999999999" y="-280.00000000000006" as="targetPoint" />
          </mxGeometry>
        </mxCell>
        <mxCell id="DIrFXB5llvS2kj0vWRAP-105" value="members_workouts_plans" style="shape=table;startSize=30;container=1;collapsible=1;childLayout=tableLayout;fixedRows=1;rowLines=0;fontStyle=1;align=center;resizeLast=1;fillColor=#f8cecc;strokeColor=#b85450;" parent="1" vertex="1">
          <mxGeometry x="2175" y="-292" width="240" height="120" as="geometry" />
        </mxCell>
        <mxCell id="DIrFXB5llvS2kj0vWRAP-106" value="" style="shape=tableRow;horizontal=0;startSize=0;swimlaneHead=0;swimlaneBody=0;fillColor=none;collapsible=0;dropTarget=0;points=[[0,0.5],[1,0.5]];portConstraint=eastwest;top=0;left=0;right=0;bottom=1;" parent="DIrFXB5llvS2kj0vWRAP-105" vertex="1">
          <mxGeometry y="30" width="240" height="30" as="geometry" />
        </mxCell>
        <mxCell id="DIrFXB5llvS2kj0vWRAP-107" value="PK" style="shape=partialRectangle;connectable=0;fillColor=#f5f5f5;top=0;left=0;bottom=0;right=0;fontStyle=1;overflow=hidden;fontColor=#333333;strokeColor=#666666;" parent="DIrFXB5llvS2kj0vWRAP-106" vertex="1">
          <mxGeometry width="80" height="30" as="geometry">
            <mxRectangle width="80" height="30" as="alternateBounds" />
          </mxGeometry>
        </mxCell>
        <mxCell id="DIrFXB5llvS2kj0vWRAP-108" value="id" style="shape=partialRectangle;connectable=0;fillColor=#f5f5f5;top=0;left=0;bottom=0;right=0;align=left;spacingLeft=6;fontStyle=5;overflow=hidden;fontColor=#333333;strokeColor=#666666;" parent="DIrFXB5llvS2kj0vWRAP-106" vertex="1">
          <mxGeometry x="80" width="160" height="30" as="geometry">
            <mxRectangle width="160" height="30" as="alternateBounds" />
          </mxGeometry>
        </mxCell>
        <mxCell id="DIrFXB5llvS2kj0vWRAP-109" style="shape=tableRow;horizontal=0;startSize=0;swimlaneHead=0;swimlaneBody=0;fillColor=none;collapsible=0;dropTarget=0;points=[[0,0.5],[1,0.5]];portConstraint=eastwest;top=0;left=0;right=0;bottom=0;" parent="DIrFXB5llvS2kj0vWRAP-105" vertex="1">
          <mxGeometry y="60" width="240" height="30" as="geometry" />
        </mxCell>
        <mxCell id="DIrFXB5llvS2kj0vWRAP-110" value="FK" style="shape=partialRectangle;connectable=0;fillColor=#f5f5f5;top=0;left=0;bottom=0;right=0;editable=1;overflow=hidden;fontColor=#333333;strokeColor=#666666;" parent="DIrFXB5llvS2kj0vWRAP-109" vertex="1">
          <mxGeometry width="80" height="30" as="geometry">
            <mxRectangle width="80" height="30" as="alternateBounds" />
          </mxGeometry>
        </mxCell>
        <mxCell id="DIrFXB5llvS2kj0vWRAP-111" value="member_id" style="shape=partialRectangle;connectable=0;fillColor=#f5f5f5;top=0;left=0;bottom=0;right=0;align=left;spacingLeft=6;overflow=hidden;fontColor=#333333;strokeColor=#666666;" parent="DIrFXB5llvS2kj0vWRAP-109" vertex="1">
          <mxGeometry x="80" width="160" height="30" as="geometry">
            <mxRectangle width="160" height="30" as="alternateBounds" />
          </mxGeometry>
        </mxCell>
        <mxCell id="DIrFXB5llvS2kj0vWRAP-112" style="shape=tableRow;horizontal=0;startSize=0;swimlaneHead=0;swimlaneBody=0;fillColor=none;collapsible=0;dropTarget=0;points=[[0,0.5],[1,0.5]];portConstraint=eastwest;top=0;left=0;right=0;bottom=0;" parent="DIrFXB5llvS2kj0vWRAP-105" vertex="1">
          <mxGeometry y="90" width="240" height="30" as="geometry" />
        </mxCell>
        <mxCell id="DIrFXB5llvS2kj0vWRAP-113" value="FK" style="shape=partialRectangle;connectable=0;fillColor=#f5f5f5;top=0;left=0;bottom=0;right=0;editable=1;overflow=hidden;fontColor=#333333;strokeColor=#666666;" parent="DIrFXB5llvS2kj0vWRAP-112" vertex="1">
          <mxGeometry width="80" height="30" as="geometry">
            <mxRectangle width="80" height="30" as="alternateBounds" />
          </mxGeometry>
        </mxCell>
        <mxCell id="DIrFXB5llvS2kj0vWRAP-114" value="workout_plan_detail_id" style="shape=partialRectangle;connectable=0;fillColor=#f5f5f5;top=0;left=0;bottom=0;right=0;align=left;spacingLeft=6;overflow=hidden;fontColor=#333333;strokeColor=#666666;" parent="DIrFXB5llvS2kj0vWRAP-112" vertex="1">
          <mxGeometry x="80" width="160" height="30" as="geometry">
            <mxRectangle width="160" height="30" as="alternateBounds" />
          </mxGeometry>
        </mxCell>
        <mxCell id="DIrFXB5llvS2kj0vWRAP-126" value="" style="edgeStyle=orthogonalEdgeStyle;fontSize=12;html=1;endArrow=ERoneToMany;rounded=0;exitX=1;exitY=0.5;exitDx=0;exitDy=0;entryX=0;entryY=0.5;entryDx=0;entryDy=0;" parent="1" source="9rMzkn_qYGO-F2BWBrdG-10" target="DIrFXB5llvS2kj0vWRAP-109" edge="1">
          <mxGeometry width="100" height="100" relative="1" as="geometry">
            <mxPoint x="2094" y="-130" as="sourcePoint" />
            <mxPoint x="1920.0000000000005" y="-130" as="targetPoint" />
          </mxGeometry>
        </mxCell>
        <mxCell id="DIrFXB5llvS2kj0vWRAP-127" value="" style="edgeStyle=orthogonalEdgeStyle;fontSize=12;html=1;endArrow=ERoneToMany;rounded=0;exitX=0;exitY=0.5;exitDx=0;exitDy=0;entryX=1;entryY=0.5;entryDx=0;entryDy=0;" parent="1" source="nS6iPJSSFPPUDI0pfMjD-97" target="DIrFXB5llvS2kj0vWRAP-109" edge="1">
          <mxGeometry width="100" height="100" relative="1" as="geometry">
            <mxPoint x="2364" y="-177" as="sourcePoint" />
            <mxPoint x="2740" y="-2" as="targetPoint" />
          </mxGeometry>
        </mxCell>
        <mxCell id="DIrFXB5llvS2kj0vWRAP-129" value="" style="edgeStyle=orthogonalEdgeStyle;fontSize=12;html=1;endArrow=ERoneToMany;rounded=0;exitX=0.5;exitY=0;exitDx=0;exitDy=0;entryX=0.5;entryY=1;entryDx=0;entryDy=0;" parent="1" source="DIrFXB5llvS2kj0vWRAP-5" target="nS6iPJSSFPPUDI0pfMjD-60" edge="1">
          <mxGeometry width="100" height="100" relative="1" as="geometry">
            <mxPoint x="2230.9199999999996" y="72" as="sourcePoint" />
            <mxPoint x="2560" y="-61" as="targetPoint" />
          </mxGeometry>
        </mxCell>
        <mxCell id="DIrFXB5llvS2kj0vWRAP-131" value="products" style="shape=table;startSize=19;container=1;collapsible=1;childLayout=tableLayout;fixedRows=1;rowLines=0;fontStyle=1;align=center;resizeLast=1;" parent="1" vertex="1">
          <mxGeometry x="1615" y="1151" width="240" height="166" as="geometry" />
        </mxCell>
        <mxCell id="DIrFXB5llvS2kj0vWRAP-132" value="" style="shape=tableRow;horizontal=0;startSize=0;swimlaneHead=0;swimlaneBody=0;fillColor=none;collapsible=0;dropTarget=0;points=[[0,0.5],[1,0.5]];portConstraint=eastwest;top=0;left=0;right=0;bottom=1;" parent="DIrFXB5llvS2kj0vWRAP-131" vertex="1">
          <mxGeometry y="19" width="240" height="30" as="geometry" />
        </mxCell>
        <mxCell id="DIrFXB5llvS2kj0vWRAP-133" value="PK" style="shape=partialRectangle;connectable=0;fillColor=#f5f5f5;top=0;left=0;bottom=0;right=0;fontStyle=1;overflow=hidden;fontColor=#333333;strokeColor=#666666;" parent="DIrFXB5llvS2kj0vWRAP-132" vertex="1">
          <mxGeometry width="85" height="30" as="geometry">
            <mxRectangle width="85" height="30" as="alternateBounds" />
          </mxGeometry>
        </mxCell>
        <mxCell id="DIrFXB5llvS2kj0vWRAP-134" value="id" style="shape=partialRectangle;connectable=0;fillColor=#f5f5f5;top=0;left=0;bottom=0;right=0;align=left;spacingLeft=6;fontStyle=5;overflow=hidden;fontColor=#333333;strokeColor=#666666;" parent="DIrFXB5llvS2kj0vWRAP-132" vertex="1">
          <mxGeometry x="85" width="155" height="30" as="geometry">
            <mxRectangle width="155" height="30" as="alternateBounds" />
          </mxGeometry>
        </mxCell>
        <mxCell id="CnmkukpoRnF5Mc1D4gRC-36" style="shape=tableRow;horizontal=0;startSize=0;swimlaneHead=0;swimlaneBody=0;fillColor=none;collapsible=0;dropTarget=0;points=[[0,0.5],[1,0.5]];portConstraint=eastwest;top=0;left=0;right=0;bottom=0;" parent="DIrFXB5llvS2kj0vWRAP-131" vertex="1">
          <mxGeometry y="49" width="240" height="30" as="geometry" />
        </mxCell>
        <mxCell id="CnmkukpoRnF5Mc1D4gRC-37" value="FK" style="shape=partialRectangle;connectable=0;fillColor=#f5f5f5;top=0;left=0;bottom=0;right=0;editable=1;overflow=hidden;fontColor=#333333;strokeColor=#666666;" parent="CnmkukpoRnF5Mc1D4gRC-36" vertex="1">
          <mxGeometry width="85" height="30" as="geometry">
            <mxRectangle width="85" height="30" as="alternateBounds" />
          </mxGeometry>
        </mxCell>
        <mxCell id="CnmkukpoRnF5Mc1D4gRC-38" value="category_id" style="shape=partialRectangle;connectable=0;fillColor=#f5f5f5;top=0;left=0;bottom=0;right=0;align=left;spacingLeft=6;overflow=hidden;fontColor=#333333;strokeColor=#666666;" parent="CnmkukpoRnF5Mc1D4gRC-36" vertex="1">
          <mxGeometry x="85" width="155" height="30" as="geometry">
            <mxRectangle width="155" height="30" as="alternateBounds" />
          </mxGeometry>
        </mxCell>
        <mxCell id="DIrFXB5llvS2kj0vWRAP-135" style="shape=tableRow;horizontal=0;startSize=0;swimlaneHead=0;swimlaneBody=0;fillColor=none;collapsible=0;dropTarget=0;points=[[0,0.5],[1,0.5]];portConstraint=eastwest;top=0;left=0;right=0;bottom=0;" parent="DIrFXB5llvS2kj0vWRAP-131" vertex="1">
          <mxGeometry y="79" width="240" height="29" as="geometry" />
        </mxCell>
        <mxCell id="DIrFXB5llvS2kj0vWRAP-136" value="varchar(256)" style="shape=partialRectangle;connectable=0;fillColor=#f5f5f5;top=0;left=0;bottom=0;right=0;editable=1;overflow=hidden;fontColor=#333333;strokeColor=#666666;" parent="DIrFXB5llvS2kj0vWRAP-135" vertex="1">
          <mxGeometry width="85" height="29" as="geometry">
            <mxRectangle width="85" height="29" as="alternateBounds" />
          </mxGeometry>
        </mxCell>
        <mxCell id="DIrFXB5llvS2kj0vWRAP-137" value="name" style="shape=partialRectangle;connectable=0;fillColor=#f5f5f5;top=0;left=0;bottom=0;right=0;align=left;spacingLeft=6;overflow=hidden;fontColor=#333333;strokeColor=#666666;" parent="DIrFXB5llvS2kj0vWRAP-135" vertex="1">
          <mxGeometry x="85" width="155" height="29" as="geometry">
            <mxRectangle width="155" height="29" as="alternateBounds" />
          </mxGeometry>
        </mxCell>
        <mxCell id="ot_BCaKHzkHSlwnmK5Li-47" style="shape=tableRow;horizontal=0;startSize=0;swimlaneHead=0;swimlaneBody=0;fillColor=none;collapsible=0;dropTarget=0;points=[[0,0.5],[1,0.5]];portConstraint=eastwest;top=0;left=0;right=0;bottom=0;" vertex="1" parent="DIrFXB5llvS2kj0vWRAP-131">
          <mxGeometry y="108" width="240" height="29" as="geometry" />
        </mxCell>
        <mxCell id="ot_BCaKHzkHSlwnmK5Li-48" value="decimal(10,2)" style="shape=partialRectangle;connectable=0;fillColor=#f5f5f5;top=0;left=0;bottom=0;right=0;editable=1;overflow=hidden;fontColor=#333333;strokeColor=#666666;" vertex="1" parent="ot_BCaKHzkHSlwnmK5Li-47">
          <mxGeometry width="85" height="29" as="geometry">
            <mxRectangle width="85" height="29" as="alternateBounds" />
          </mxGeometry>
        </mxCell>
        <mxCell id="ot_BCaKHzkHSlwnmK5Li-49" value="price" style="shape=partialRectangle;connectable=0;fillColor=#f5f5f5;top=0;left=0;bottom=0;right=0;align=left;spacingLeft=6;overflow=hidden;fontColor=#333333;strokeColor=#666666;" vertex="1" parent="ot_BCaKHzkHSlwnmK5Li-47">
          <mxGeometry x="85" width="155" height="29" as="geometry">
            <mxRectangle width="155" height="29" as="alternateBounds" />
          </mxGeometry>
        </mxCell>
        <mxCell id="ot_BCaKHzkHSlwnmK5Li-50" style="shape=tableRow;horizontal=0;startSize=0;swimlaneHead=0;swimlaneBody=0;fillColor=none;collapsible=0;dropTarget=0;points=[[0,0.5],[1,0.5]];portConstraint=eastwest;top=0;left=0;right=0;bottom=0;" vertex="1" parent="DIrFXB5llvS2kj0vWRAP-131">
          <mxGeometry y="137" width="240" height="29" as="geometry" />
        </mxCell>
        <mxCell id="ot_BCaKHzkHSlwnmK5Li-51" value="varchar(256)" style="shape=partialRectangle;connectable=0;fillColor=#f5f5f5;top=0;left=0;bottom=0;right=0;editable=1;overflow=hidden;fontColor=#333333;strokeColor=#666666;" vertex="1" parent="ot_BCaKHzkHSlwnmK5Li-50">
          <mxGeometry width="85" height="29" as="geometry">
            <mxRectangle width="85" height="29" as="alternateBounds" />
          </mxGeometry>
        </mxCell>
        <mxCell id="ot_BCaKHzkHSlwnmK5Li-52" value="image_url" style="shape=partialRectangle;connectable=0;fillColor=#f5f5f5;top=0;left=0;bottom=0;right=0;align=left;spacingLeft=6;overflow=hidden;fontColor=#333333;strokeColor=#666666;" vertex="1" parent="ot_BCaKHzkHSlwnmK5Li-50">
          <mxGeometry x="85" width="155" height="29" as="geometry">
            <mxRectangle width="155" height="29" as="alternateBounds" />
          </mxGeometry>
        </mxCell>
        <mxCell id="DIrFXB5llvS2kj0vWRAP-150" value="categories" style="shape=table;startSize=30;container=1;collapsible=1;childLayout=tableLayout;fixedRows=1;rowLines=0;fontStyle=1;align=center;resizeLast=1;" parent="1" vertex="1">
          <mxGeometry x="1954" y="1151" width="240" height="90" as="geometry" />
        </mxCell>
        <mxCell id="DIrFXB5llvS2kj0vWRAP-151" value="" style="shape=tableRow;horizontal=0;startSize=0;swimlaneHead=0;swimlaneBody=0;fillColor=none;collapsible=0;dropTarget=0;points=[[0,0.5],[1,0.5]];portConstraint=eastwest;top=0;left=0;right=0;bottom=1;" parent="DIrFXB5llvS2kj0vWRAP-150" vertex="1">
          <mxGeometry y="30" width="240" height="30" as="geometry" />
        </mxCell>
        <mxCell id="DIrFXB5llvS2kj0vWRAP-152" value="PK" style="shape=partialRectangle;connectable=0;fillColor=#f5f5f5;top=0;left=0;bottom=0;right=0;fontStyle=1;overflow=hidden;fontColor=#333333;strokeColor=#666666;" parent="DIrFXB5llvS2kj0vWRAP-151" vertex="1">
          <mxGeometry width="80" height="30" as="geometry">
            <mxRectangle width="80" height="30" as="alternateBounds" />
          </mxGeometry>
        </mxCell>
        <mxCell id="DIrFXB5llvS2kj0vWRAP-153" value="id" style="shape=partialRectangle;connectable=0;fillColor=#f5f5f5;top=0;left=0;bottom=0;right=0;align=left;spacingLeft=6;fontStyle=5;overflow=hidden;fontColor=#333333;strokeColor=#666666;" parent="DIrFXB5llvS2kj0vWRAP-151" vertex="1">
          <mxGeometry x="80" width="160" height="30" as="geometry">
            <mxRectangle width="160" height="30" as="alternateBounds" />
          </mxGeometry>
        </mxCell>
        <mxCell id="DIrFXB5llvS2kj0vWRAP-154" style="shape=tableRow;horizontal=0;startSize=0;swimlaneHead=0;swimlaneBody=0;fillColor=none;collapsible=0;dropTarget=0;points=[[0,0.5],[1,0.5]];portConstraint=eastwest;top=0;left=0;right=0;bottom=0;" parent="DIrFXB5llvS2kj0vWRAP-150" vertex="1">
          <mxGeometry y="60" width="240" height="30" as="geometry" />
        </mxCell>
        <mxCell id="DIrFXB5llvS2kj0vWRAP-155" value="varchar(256)" style="shape=partialRectangle;connectable=0;fillColor=#f5f5f5;top=0;left=0;bottom=0;right=0;editable=1;overflow=hidden;fontColor=#333333;strokeColor=#666666;" parent="DIrFXB5llvS2kj0vWRAP-154" vertex="1">
          <mxGeometry width="80" height="30" as="geometry">
            <mxRectangle width="80" height="30" as="alternateBounds" />
          </mxGeometry>
        </mxCell>
        <mxCell id="DIrFXB5llvS2kj0vWRAP-156" value="name" style="shape=partialRectangle;connectable=0;fillColor=#f5f5f5;top=0;left=0;bottom=0;right=0;align=left;spacingLeft=6;overflow=hidden;fontColor=#333333;strokeColor=#666666;" parent="DIrFXB5llvS2kj0vWRAP-154" vertex="1">
          <mxGeometry x="80" width="160" height="30" as="geometry">
            <mxRectangle width="160" height="30" as="alternateBounds" />
          </mxGeometry>
        </mxCell>
        <mxCell id="9rMzkn_qYGO-F2BWBrdG-14" value="" style="edgeStyle=orthogonalEdgeStyle;fontSize=12;html=1;endArrow=ERoneToMany;rounded=0;entryX=0.5;entryY=0;entryDx=0;entryDy=0;exitX=0;exitY=0.5;exitDx=0;exitDy=0;" parent="1" source="nS6iPJSSFPPUDI0pfMjD-45" target="ot_BCaKHzkHSlwnmK5Li-1" edge="1">
          <mxGeometry width="100" height="100" relative="1" as="geometry">
            <mxPoint x="1710" y="180" as="sourcePoint" />
            <mxPoint x="1740" y="30" as="targetPoint" />
          </mxGeometry>
        </mxCell>
        <mxCell id="CnmkukpoRnF5Mc1D4gRC-4" value="stock" style="shape=table;startSize=30;container=1;collapsible=1;childLayout=tableLayout;fixedRows=1;rowLines=0;fontStyle=1;align=center;resizeLast=1;fillColor=#f8cecc;strokeColor=#b85450;" parent="1" vertex="1">
          <mxGeometry x="1660" y="685" width="240" height="190" as="geometry" />
        </mxCell>
        <mxCell id="CnmkukpoRnF5Mc1D4gRC-5" value="" style="shape=tableRow;horizontal=0;startSize=0;swimlaneHead=0;swimlaneBody=0;fillColor=none;collapsible=0;dropTarget=0;points=[[0,0.5],[1,0.5]];portConstraint=eastwest;top=0;left=0;right=0;bottom=1;" parent="CnmkukpoRnF5Mc1D4gRC-4" vertex="1">
          <mxGeometry y="30" width="240" height="30" as="geometry" />
        </mxCell>
        <mxCell id="CnmkukpoRnF5Mc1D4gRC-6" value="PK" style="shape=partialRectangle;connectable=0;fillColor=#f5f5f5;top=0;left=0;bottom=0;right=0;fontStyle=1;overflow=hidden;fontColor=#333333;strokeColor=#666666;" parent="CnmkukpoRnF5Mc1D4gRC-5" vertex="1">
          <mxGeometry width="80" height="30" as="geometry">
            <mxRectangle width="80" height="30" as="alternateBounds" />
          </mxGeometry>
        </mxCell>
        <mxCell id="CnmkukpoRnF5Mc1D4gRC-7" value="id" style="shape=partialRectangle;connectable=0;fillColor=#f5f5f5;top=0;left=0;bottom=0;right=0;align=left;spacingLeft=6;fontStyle=5;overflow=hidden;fontColor=#333333;strokeColor=#666666;" parent="CnmkukpoRnF5Mc1D4gRC-5" vertex="1">
          <mxGeometry x="80" width="160" height="30" as="geometry">
            <mxRectangle width="160" height="30" as="alternateBounds" />
          </mxGeometry>
        </mxCell>
        <mxCell id="CnmkukpoRnF5Mc1D4gRC-8" style="shape=tableRow;horizontal=0;startSize=0;swimlaneHead=0;swimlaneBody=0;fillColor=none;collapsible=0;dropTarget=0;points=[[0,0.5],[1,0.5]];portConstraint=eastwest;top=0;left=0;right=0;bottom=0;" parent="CnmkukpoRnF5Mc1D4gRC-4" vertex="1">
          <mxGeometry y="60" width="240" height="35" as="geometry" />
        </mxCell>
        <mxCell id="CnmkukpoRnF5Mc1D4gRC-9" value="FK" style="shape=partialRectangle;connectable=0;fillColor=#f5f5f5;top=0;left=0;bottom=0;right=0;editable=1;overflow=hidden;fontColor=#333333;strokeColor=#666666;" parent="CnmkukpoRnF5Mc1D4gRC-8" vertex="1">
          <mxGeometry width="80" height="35" as="geometry">
            <mxRectangle width="80" height="35" as="alternateBounds" />
          </mxGeometry>
        </mxCell>
        <mxCell id="CnmkukpoRnF5Mc1D4gRC-10" value="gym_id" style="shape=partialRectangle;connectable=0;fillColor=#f5f5f5;top=0;left=0;bottom=0;right=0;align=left;spacingLeft=6;overflow=hidden;fontColor=#333333;strokeColor=#666666;" parent="CnmkukpoRnF5Mc1D4gRC-8" vertex="1">
          <mxGeometry x="80" width="160" height="35" as="geometry">
            <mxRectangle width="160" height="35" as="alternateBounds" />
          </mxGeometry>
        </mxCell>
        <mxCell id="CnmkukpoRnF5Mc1D4gRC-11" style="shape=tableRow;horizontal=0;startSize=0;swimlaneHead=0;swimlaneBody=0;fillColor=none;collapsible=0;dropTarget=0;points=[[0,0.5],[1,0.5]];portConstraint=eastwest;top=0;left=0;right=0;bottom=0;" parent="CnmkukpoRnF5Mc1D4gRC-4" vertex="1">
          <mxGeometry y="95" width="240" height="35" as="geometry" />
        </mxCell>
        <mxCell id="CnmkukpoRnF5Mc1D4gRC-12" value="FK" style="shape=partialRectangle;connectable=0;fillColor=#f5f5f5;top=0;left=0;bottom=0;right=0;editable=1;overflow=hidden;fontColor=#333333;strokeColor=#666666;" parent="CnmkukpoRnF5Mc1D4gRC-11" vertex="1">
          <mxGeometry width="80" height="35" as="geometry">
            <mxRectangle width="80" height="35" as="alternateBounds" />
          </mxGeometry>
        </mxCell>
        <mxCell id="CnmkukpoRnF5Mc1D4gRC-13" value="product_id" style="shape=partialRectangle;connectable=0;fillColor=#f5f5f5;top=0;left=0;bottom=0;right=0;align=left;spacingLeft=6;overflow=hidden;fontColor=#333333;strokeColor=#666666;" parent="CnmkukpoRnF5Mc1D4gRC-11" vertex="1">
          <mxGeometry x="80" width="160" height="35" as="geometry">
            <mxRectangle width="160" height="35" as="alternateBounds" />
          </mxGeometry>
        </mxCell>
        <mxCell id="CnmkukpoRnF5Mc1D4gRC-14" style="shape=tableRow;horizontal=0;startSize=0;swimlaneHead=0;swimlaneBody=0;fillColor=none;collapsible=0;dropTarget=0;points=[[0,0.5],[1,0.5]];portConstraint=eastwest;top=0;left=0;right=0;bottom=0;" parent="CnmkukpoRnF5Mc1D4gRC-4" vertex="1">
          <mxGeometry y="130" width="240" height="30" as="geometry" />
        </mxCell>
        <mxCell id="CnmkukpoRnF5Mc1D4gRC-15" value="number" style="shape=partialRectangle;connectable=0;fillColor=#f5f5f5;top=0;left=0;bottom=0;right=0;editable=1;overflow=hidden;fontColor=#333333;strokeColor=#666666;" parent="CnmkukpoRnF5Mc1D4gRC-14" vertex="1">
          <mxGeometry width="80" height="30" as="geometry">
            <mxRectangle width="80" height="30" as="alternateBounds" />
          </mxGeometry>
        </mxCell>
        <mxCell id="CnmkukpoRnF5Mc1D4gRC-16" value="amount" style="shape=partialRectangle;connectable=0;fillColor=#f5f5f5;top=0;left=0;bottom=0;right=0;align=left;spacingLeft=6;overflow=hidden;fontColor=#333333;strokeColor=#666666;" parent="CnmkukpoRnF5Mc1D4gRC-14" vertex="1">
          <mxGeometry x="80" width="160" height="30" as="geometry">
            <mxRectangle width="160" height="30" as="alternateBounds" />
          </mxGeometry>
        </mxCell>
        <mxCell id="ot_BCaKHzkHSlwnmK5Li-44" style="shape=tableRow;horizontal=0;startSize=0;swimlaneHead=0;swimlaneBody=0;fillColor=none;collapsible=0;dropTarget=0;points=[[0,0.5],[1,0.5]];portConstraint=eastwest;top=0;left=0;right=0;bottom=0;" vertex="1" parent="CnmkukpoRnF5Mc1D4gRC-4">
          <mxGeometry y="160" width="240" height="30" as="geometry" />
        </mxCell>
        <mxCell id="ot_BCaKHzkHSlwnmK5Li-45" value="date" style="shape=partialRectangle;connectable=0;fillColor=#f5f5f5;top=0;left=0;bottom=0;right=0;editable=1;overflow=hidden;fontColor=#333333;strokeColor=#666666;" vertex="1" parent="ot_BCaKHzkHSlwnmK5Li-44">
          <mxGeometry width="80" height="30" as="geometry">
            <mxRectangle width="80" height="30" as="alternateBounds" />
          </mxGeometry>
        </mxCell>
        <mxCell id="ot_BCaKHzkHSlwnmK5Li-46" value="created_at" style="shape=partialRectangle;connectable=0;fillColor=#f5f5f5;top=0;left=0;bottom=0;right=0;align=left;spacingLeft=6;overflow=hidden;fontColor=#333333;strokeColor=#666666;" vertex="1" parent="ot_BCaKHzkHSlwnmK5Li-44">
          <mxGeometry x="80" width="160" height="30" as="geometry">
            <mxRectangle width="160" height="30" as="alternateBounds" />
          </mxGeometry>
        </mxCell>
        <mxCell id="CnmkukpoRnF5Mc1D4gRC-24" value="" style="edgeStyle=orthogonalEdgeStyle;fontSize=12;html=1;endArrow=ERoneToMany;rounded=0;entryX=0.5;entryY=1;entryDx=0;entryDy=0;exitX=0.5;exitY=0;exitDx=0;exitDy=0;" parent="1" target="CnmkukpoRnF5Mc1D4gRC-4" edge="1" source="DIrFXB5llvS2kj0vWRAP-131">
          <mxGeometry width="100" height="100" relative="1" as="geometry">
            <mxPoint x="1827" y="1255" as="sourcePoint" />
            <mxPoint x="1927" y="1155" as="targetPoint" />
          </mxGeometry>
        </mxCell>
        <mxCell id="CnmkukpoRnF5Mc1D4gRC-35" value="" style="edgeStyle=entityRelationEdgeStyle;fontSize=12;html=1;endArrow=ERoneToMany;rounded=0;entryX=1;entryY=0.5;entryDx=0;entryDy=0;exitX=0.016;exitY=1.005;exitDx=0;exitDy=0;exitPerimeter=0;" parent="1" source="DIrFXB5llvS2kj0vWRAP-151" target="DIrFXB5llvS2kj0vWRAP-131" edge="1">
          <mxGeometry width="100" height="100" relative="1" as="geometry">
            <mxPoint x="2075" y="1491" as="sourcePoint" />
            <mxPoint x="1845" y="1441" as="targetPoint" />
          </mxGeometry>
        </mxCell>
        <mxCell id="wcBPrysFTeDaV5ZYO1Ei-2" value="exercises" style="shape=table;startSize=30;container=1;collapsible=1;childLayout=tableLayout;fixedRows=1;rowLines=0;fontStyle=1;align=center;resizeLast=1;" parent="1" vertex="1">
          <mxGeometry x="4170" y="270" width="240" height="160" as="geometry" />
        </mxCell>
        <mxCell id="wcBPrysFTeDaV5ZYO1Ei-3" value="" style="shape=tableRow;horizontal=0;startSize=0;swimlaneHead=0;swimlaneBody=0;fillColor=none;collapsible=0;dropTarget=0;points=[[0,0.5],[1,0.5]];portConstraint=eastwest;top=0;left=0;right=0;bottom=1;" parent="wcBPrysFTeDaV5ZYO1Ei-2" vertex="1">
          <mxGeometry y="30" width="240" height="30" as="geometry" />
        </mxCell>
        <mxCell id="wcBPrysFTeDaV5ZYO1Ei-4" value="PK" style="shape=partialRectangle;connectable=0;fillColor=#f5f5f5;top=0;left=0;bottom=0;right=0;fontStyle=1;overflow=hidden;fontColor=#333333;strokeColor=#666666;" parent="wcBPrysFTeDaV5ZYO1Ei-3" vertex="1">
          <mxGeometry width="80" height="30" as="geometry">
            <mxRectangle width="80" height="30" as="alternateBounds" />
          </mxGeometry>
        </mxCell>
        <mxCell id="wcBPrysFTeDaV5ZYO1Ei-5" value="id" style="shape=partialRectangle;connectable=0;fillColor=#f5f5f5;top=0;left=0;bottom=0;right=0;align=left;spacingLeft=6;fontStyle=5;overflow=hidden;fontColor=#333333;strokeColor=#666666;" parent="wcBPrysFTeDaV5ZYO1Ei-3" vertex="1">
          <mxGeometry x="80" width="160" height="30" as="geometry">
            <mxRectangle width="160" height="30" as="alternateBounds" />
          </mxGeometry>
        </mxCell>
        <mxCell id="wcBPrysFTeDaV5ZYO1Ei-12" style="shape=tableRow;horizontal=0;startSize=0;swimlaneHead=0;swimlaneBody=0;fillColor=none;collapsible=0;dropTarget=0;points=[[0,0.5],[1,0.5]];portConstraint=eastwest;top=0;left=0;right=0;bottom=0;" parent="wcBPrysFTeDaV5ZYO1Ei-2" vertex="1">
          <mxGeometry y="60" width="240" height="30" as="geometry" />
        </mxCell>
        <mxCell id="wcBPrysFTeDaV5ZYO1Ei-13" value="int" style="shape=partialRectangle;connectable=0;fillColor=#f5f5f5;top=0;left=0;bottom=0;right=0;editable=1;overflow=hidden;fontColor=#333333;strokeColor=#666666;" parent="wcBPrysFTeDaV5ZYO1Ei-12" vertex="1">
          <mxGeometry width="80" height="30" as="geometry">
            <mxRectangle width="80" height="30" as="alternateBounds" />
          </mxGeometry>
        </mxCell>
        <mxCell id="wcBPrysFTeDaV5ZYO1Ei-14" value="sets" style="shape=partialRectangle;connectable=0;fillColor=#f5f5f5;top=0;left=0;bottom=0;right=0;align=left;spacingLeft=6;overflow=hidden;fontColor=#333333;strokeColor=#666666;" parent="wcBPrysFTeDaV5ZYO1Ei-12" vertex="1">
          <mxGeometry x="80" width="160" height="30" as="geometry">
            <mxRectangle width="160" height="30" as="alternateBounds" />
          </mxGeometry>
        </mxCell>
        <mxCell id="wcBPrysFTeDaV5ZYO1Ei-15" style="shape=tableRow;horizontal=0;startSize=0;swimlaneHead=0;swimlaneBody=0;fillColor=none;collapsible=0;dropTarget=0;points=[[0,0.5],[1,0.5]];portConstraint=eastwest;top=0;left=0;right=0;bottom=0;" parent="wcBPrysFTeDaV5ZYO1Ei-2" vertex="1">
          <mxGeometry y="90" width="240" height="30" as="geometry" />
        </mxCell>
        <mxCell id="wcBPrysFTeDaV5ZYO1Ei-16" value="int" style="shape=partialRectangle;connectable=0;fillColor=#f5f5f5;top=0;left=0;bottom=0;right=0;editable=1;overflow=hidden;fontColor=#333333;strokeColor=#666666;" parent="wcBPrysFTeDaV5ZYO1Ei-15" vertex="1">
          <mxGeometry width="80" height="30" as="geometry">
            <mxRectangle width="80" height="30" as="alternateBounds" />
          </mxGeometry>
        </mxCell>
        <mxCell id="wcBPrysFTeDaV5ZYO1Ei-17" value="repetitions" style="shape=partialRectangle;connectable=0;fillColor=#f5f5f5;top=0;left=0;bottom=0;right=0;align=left;spacingLeft=6;overflow=hidden;fontColor=#333333;strokeColor=#666666;" parent="wcBPrysFTeDaV5ZYO1Ei-15" vertex="1">
          <mxGeometry x="80" width="160" height="30" as="geometry">
            <mxRectangle width="160" height="30" as="alternateBounds" />
          </mxGeometry>
        </mxCell>
        <mxCell id="wcBPrysFTeDaV5ZYO1Ei-18" style="shape=tableRow;horizontal=0;startSize=0;swimlaneHead=0;swimlaneBody=0;fillColor=none;collapsible=0;dropTarget=0;points=[[0,0.5],[1,0.5]];portConstraint=eastwest;top=0;left=0;right=0;bottom=0;" parent="wcBPrysFTeDaV5ZYO1Ei-2" vertex="1">
          <mxGeometry y="120" width="240" height="30" as="geometry" />
        </mxCell>
        <mxCell id="wcBPrysFTeDaV5ZYO1Ei-19" style="shape=partialRectangle;connectable=0;fillColor=none;top=0;left=0;bottom=0;right=0;editable=1;overflow=hidden;" parent="wcBPrysFTeDaV5ZYO1Ei-18" vertex="1">
          <mxGeometry width="80" height="30" as="geometry">
            <mxRectangle width="80" height="30" as="alternateBounds" />
          </mxGeometry>
        </mxCell>
        <mxCell id="wcBPrysFTeDaV5ZYO1Ei-20" style="shape=partialRectangle;connectable=0;fillColor=none;top=0;left=0;bottom=0;right=0;align=left;spacingLeft=6;overflow=hidden;" parent="wcBPrysFTeDaV5ZYO1Ei-18" vertex="1">
          <mxGeometry x="80" width="160" height="30" as="geometry">
            <mxRectangle width="160" height="30" as="alternateBounds" />
          </mxGeometry>
        </mxCell>
        <mxCell id="wcBPrysFTeDaV5ZYO1Ei-21" value="workouts_plans_workouts" style="shape=table;startSize=30;container=1;collapsible=1;childLayout=tableLayout;fixedRows=1;rowLines=0;fontStyle=1;align=center;resizeLast=1;fillColor=#f8cecc;strokeColor=#b85450;" parent="1" vertex="1">
          <mxGeometry x="3353" y="-282" width="240" height="120" as="geometry" />
        </mxCell>
        <mxCell id="wcBPrysFTeDaV5ZYO1Ei-22" value="" style="shape=tableRow;horizontal=0;startSize=0;swimlaneHead=0;swimlaneBody=0;fillColor=none;collapsible=0;dropTarget=0;points=[[0,0.5],[1,0.5]];portConstraint=eastwest;top=0;left=0;right=0;bottom=1;" parent="wcBPrysFTeDaV5ZYO1Ei-21" vertex="1">
          <mxGeometry y="30" width="240" height="30" as="geometry" />
        </mxCell>
        <mxCell id="wcBPrysFTeDaV5ZYO1Ei-23" value="PK" style="shape=partialRectangle;connectable=0;fillColor=#f5f5f5;top=0;left=0;bottom=0;right=0;fontStyle=1;overflow=hidden;fontColor=#333333;strokeColor=#666666;" parent="wcBPrysFTeDaV5ZYO1Ei-22" vertex="1">
          <mxGeometry width="80" height="30" as="geometry">
            <mxRectangle width="80" height="30" as="alternateBounds" />
          </mxGeometry>
        </mxCell>
        <mxCell id="wcBPrysFTeDaV5ZYO1Ei-24" value="id" style="shape=partialRectangle;connectable=0;fillColor=#f5f5f5;top=0;left=0;bottom=0;right=0;align=left;spacingLeft=6;fontStyle=5;overflow=hidden;fontColor=#333333;strokeColor=#666666;" parent="wcBPrysFTeDaV5ZYO1Ei-22" vertex="1">
          <mxGeometry x="80" width="160" height="30" as="geometry">
            <mxRectangle width="160" height="30" as="alternateBounds" />
          </mxGeometry>
        </mxCell>
        <mxCell id="wcBPrysFTeDaV5ZYO1Ei-25" style="shape=tableRow;horizontal=0;startSize=0;swimlaneHead=0;swimlaneBody=0;fillColor=none;collapsible=0;dropTarget=0;points=[[0,0.5],[1,0.5]];portConstraint=eastwest;top=0;left=0;right=0;bottom=0;" parent="wcBPrysFTeDaV5ZYO1Ei-21" vertex="1">
          <mxGeometry y="60" width="240" height="30" as="geometry" />
        </mxCell>
        <mxCell id="wcBPrysFTeDaV5ZYO1Ei-26" value="FK" style="shape=partialRectangle;connectable=0;fillColor=#f5f5f5;top=0;left=0;bottom=0;right=0;editable=1;overflow=hidden;fontColor=#333333;strokeColor=#666666;" parent="wcBPrysFTeDaV5ZYO1Ei-25" vertex="1">
          <mxGeometry width="80" height="30" as="geometry">
            <mxRectangle width="80" height="30" as="alternateBounds" />
          </mxGeometry>
        </mxCell>
        <mxCell id="wcBPrysFTeDaV5ZYO1Ei-27" value="workout_plan_id" style="shape=partialRectangle;connectable=0;fillColor=#f5f5f5;top=0;left=0;bottom=0;right=0;align=left;spacingLeft=6;overflow=hidden;fontColor=#333333;strokeColor=#666666;" parent="wcBPrysFTeDaV5ZYO1Ei-25" vertex="1">
          <mxGeometry x="80" width="160" height="30" as="geometry">
            <mxRectangle width="160" height="30" as="alternateBounds" />
          </mxGeometry>
        </mxCell>
        <mxCell id="wcBPrysFTeDaV5ZYO1Ei-28" style="shape=tableRow;horizontal=0;startSize=0;swimlaneHead=0;swimlaneBody=0;fillColor=none;collapsible=0;dropTarget=0;points=[[0,0.5],[1,0.5]];portConstraint=eastwest;top=0;left=0;right=0;bottom=0;" parent="wcBPrysFTeDaV5ZYO1Ei-21" vertex="1">
          <mxGeometry y="90" width="240" height="30" as="geometry" />
        </mxCell>
        <mxCell id="wcBPrysFTeDaV5ZYO1Ei-29" value="FK" style="shape=partialRectangle;connectable=0;fillColor=#f5f5f5;top=0;left=0;bottom=0;right=0;editable=1;overflow=hidden;fontColor=#333333;strokeColor=#666666;" parent="wcBPrysFTeDaV5ZYO1Ei-28" vertex="1">
          <mxGeometry width="80" height="30" as="geometry">
            <mxRectangle width="80" height="30" as="alternateBounds" />
          </mxGeometry>
        </mxCell>
        <mxCell id="wcBPrysFTeDaV5ZYO1Ei-30" value="workout_id" style="shape=partialRectangle;connectable=0;fillColor=#f5f5f5;top=0;left=0;bottom=0;right=0;align=left;spacingLeft=6;overflow=hidden;fontColor=#333333;strokeColor=#666666;" parent="wcBPrysFTeDaV5ZYO1Ei-28" vertex="1">
          <mxGeometry x="80" width="160" height="30" as="geometry">
            <mxRectangle width="160" height="30" as="alternateBounds" />
          </mxGeometry>
        </mxCell>
        <mxCell id="wcBPrysFTeDaV5ZYO1Ei-40" value="" style="edgeStyle=orthogonalEdgeStyle;fontSize=12;html=1;endArrow=ERoneToMany;rounded=0;exitX=1;exitY=0.5;exitDx=0;exitDy=0;entryX=0;entryY=0.5;entryDx=0;entryDy=0;" parent="1" source="nS6iPJSSFPPUDI0pfMjD-97" target="wcBPrysFTeDaV5ZYO1Ei-25" edge="1">
          <mxGeometry width="100" height="100" relative="1" as="geometry">
            <mxPoint x="3278.9999999999995" y="-42" as="sourcePoint" />
            <mxPoint x="3120" y="-11" as="targetPoint" />
          </mxGeometry>
        </mxCell>
        <mxCell id="wcBPrysFTeDaV5ZYO1Ei-41" value="" style="edgeStyle=orthogonalEdgeStyle;fontSize=12;html=1;endArrow=ERoneToMany;rounded=0;exitX=0.5;exitY=0;exitDx=0;exitDy=0;entryX=0.489;entryY=1.01;entryDx=0;entryDy=0;entryPerimeter=0;" parent="1" source="DIrFXB5llvS2kj0vWRAP-44" target="wcBPrysFTeDaV5ZYO1Ei-28" edge="1">
          <mxGeometry width="100" height="100" relative="1" as="geometry">
            <mxPoint x="3130" y="-70" as="sourcePoint" />
            <mxPoint x="2980" y="-40" as="targetPoint" />
          </mxGeometry>
        </mxCell>
        <mxCell id="wcBPrysFTeDaV5ZYO1Ei-42" value="workout_exercises" style="shape=table;startSize=30;container=1;collapsible=1;childLayout=tableLayout;fixedRows=1;rowLines=0;fontStyle=1;align=center;resizeLast=1;fillColor=#f8cecc;strokeColor=#b85450;" parent="1" vertex="1">
          <mxGeometry x="3773" y="270" width="240" height="120" as="geometry" />
        </mxCell>
        <mxCell id="wcBPrysFTeDaV5ZYO1Ei-43" value="" style="shape=tableRow;horizontal=0;startSize=0;swimlaneHead=0;swimlaneBody=0;fillColor=none;collapsible=0;dropTarget=0;points=[[0,0.5],[1,0.5]];portConstraint=eastwest;top=0;left=0;right=0;bottom=1;" parent="wcBPrysFTeDaV5ZYO1Ei-42" vertex="1">
          <mxGeometry y="30" width="240" height="30" as="geometry" />
        </mxCell>
        <mxCell id="wcBPrysFTeDaV5ZYO1Ei-44" value="PK" style="shape=partialRectangle;connectable=0;fillColor=#f5f5f5;top=0;left=0;bottom=0;right=0;fontStyle=1;overflow=hidden;fontColor=#333333;strokeColor=#666666;" parent="wcBPrysFTeDaV5ZYO1Ei-43" vertex="1">
          <mxGeometry width="80" height="30" as="geometry">
            <mxRectangle width="80" height="30" as="alternateBounds" />
          </mxGeometry>
        </mxCell>
        <mxCell id="wcBPrysFTeDaV5ZYO1Ei-45" value="id" style="shape=partialRectangle;connectable=0;fillColor=#f5f5f5;top=0;left=0;bottom=0;right=0;align=left;spacingLeft=6;fontStyle=5;overflow=hidden;fontColor=#333333;strokeColor=#666666;" parent="wcBPrysFTeDaV5ZYO1Ei-43" vertex="1">
          <mxGeometry x="80" width="160" height="30" as="geometry">
            <mxRectangle width="160" height="30" as="alternateBounds" />
          </mxGeometry>
        </mxCell>
        <mxCell id="wcBPrysFTeDaV5ZYO1Ei-46" style="shape=tableRow;horizontal=0;startSize=0;swimlaneHead=0;swimlaneBody=0;fillColor=none;collapsible=0;dropTarget=0;points=[[0,0.5],[1,0.5]];portConstraint=eastwest;top=0;left=0;right=0;bottom=0;" parent="wcBPrysFTeDaV5ZYO1Ei-42" vertex="1">
          <mxGeometry y="60" width="240" height="30" as="geometry" />
        </mxCell>
        <mxCell id="wcBPrysFTeDaV5ZYO1Ei-47" value="FK" style="shape=partialRectangle;connectable=0;fillColor=#f5f5f5;top=0;left=0;bottom=0;right=0;editable=1;overflow=hidden;fontColor=#333333;strokeColor=#666666;" parent="wcBPrysFTeDaV5ZYO1Ei-46" vertex="1">
          <mxGeometry width="80" height="30" as="geometry">
            <mxRectangle width="80" height="30" as="alternateBounds" />
          </mxGeometry>
        </mxCell>
        <mxCell id="wcBPrysFTeDaV5ZYO1Ei-48" value="workout_id" style="shape=partialRectangle;connectable=0;fillColor=#f5f5f5;top=0;left=0;bottom=0;right=0;align=left;spacingLeft=6;overflow=hidden;fontColor=#333333;strokeColor=#666666;" parent="wcBPrysFTeDaV5ZYO1Ei-46" vertex="1">
          <mxGeometry x="80" width="160" height="30" as="geometry">
            <mxRectangle width="160" height="30" as="alternateBounds" />
          </mxGeometry>
        </mxCell>
        <mxCell id="wcBPrysFTeDaV5ZYO1Ei-49" style="shape=tableRow;horizontal=0;startSize=0;swimlaneHead=0;swimlaneBody=0;fillColor=none;collapsible=0;dropTarget=0;points=[[0,0.5],[1,0.5]];portConstraint=eastwest;top=0;left=0;right=0;bottom=0;" parent="wcBPrysFTeDaV5ZYO1Ei-42" vertex="1">
          <mxGeometry y="90" width="240" height="30" as="geometry" />
        </mxCell>
        <mxCell id="wcBPrysFTeDaV5ZYO1Ei-50" value="FK" style="shape=partialRectangle;connectable=0;fillColor=#f5f5f5;top=0;left=0;bottom=0;right=0;editable=1;overflow=hidden;fontColor=#333333;strokeColor=#666666;" parent="wcBPrysFTeDaV5ZYO1Ei-49" vertex="1">
          <mxGeometry width="80" height="30" as="geometry">
            <mxRectangle width="80" height="30" as="alternateBounds" />
          </mxGeometry>
        </mxCell>
        <mxCell id="wcBPrysFTeDaV5ZYO1Ei-51" value="exercise_id" style="shape=partialRectangle;connectable=0;fillColor=#f5f5f5;top=0;left=0;bottom=0;right=0;align=left;spacingLeft=6;overflow=hidden;fontColor=#333333;strokeColor=#666666;" parent="wcBPrysFTeDaV5ZYO1Ei-49" vertex="1">
          <mxGeometry x="80" width="160" height="30" as="geometry">
            <mxRectangle width="160" height="30" as="alternateBounds" />
          </mxGeometry>
        </mxCell>
        <mxCell id="wcBPrysFTeDaV5ZYO1Ei-62" value="" style="edgeStyle=entityRelationEdgeStyle;fontSize=12;html=1;endArrow=ERoneToMany;rounded=0;exitX=1;exitY=0.5;exitDx=0;exitDy=0;entryX=0;entryY=0.5;entryDx=0;entryDy=0;" parent="1" source="DIrFXB5llvS2kj0vWRAP-54" target="wcBPrysFTeDaV5ZYO1Ei-49" edge="1">
          <mxGeometry width="100" height="100" relative="1" as="geometry">
            <mxPoint x="3673" y="445" as="sourcePoint" />
            <mxPoint x="3677" y="315" as="targetPoint" />
          </mxGeometry>
        </mxCell>
        <mxCell id="wcBPrysFTeDaV5ZYO1Ei-63" value="" style="edgeStyle=entityRelationEdgeStyle;fontSize=12;html=1;endArrow=ERoneToMany;rounded=0;exitX=0;exitY=0.5;exitDx=0;exitDy=0;entryX=1;entryY=0.5;entryDx=0;entryDy=0;" parent="1" target="wcBPrysFTeDaV5ZYO1Ei-49" edge="1">
          <mxGeometry width="100" height="100" relative="1" as="geometry">
            <mxPoint x="4044" y="550" as="sourcePoint" />
            <mxPoint x="4205" y="550" as="targetPoint" />
          </mxGeometry>
        </mxCell>
        <mxCell id="wcBPrysFTeDaV5ZYO1Ei-69" value="&lt;b&gt;&lt;font style=&quot;font-size: 16px;&quot;&gt;Produto&lt;/font&gt;&lt;/b&gt;" style="text;html=1;strokeColor=none;fillColor=none;align=center;verticalAlign=middle;whiteSpace=wrap;rounded=0;dashed=1;" parent="1" vertex="1">
          <mxGeometry x="2134" y="1480" width="60" height="30" as="geometry" />
        </mxCell>
        <mxCell id="wcBPrysFTeDaV5ZYO1Ei-72" value="&lt;b&gt;&lt;font style=&quot;font-size: 16px;&quot;&gt;Planos de Assinatura&lt;/font&gt;&lt;/b&gt;" style="text;html=1;strokeColor=none;fillColor=none;align=center;verticalAlign=middle;whiteSpace=wrap;rounded=0;dashed=1;" parent="1" vertex="1">
          <mxGeometry x="1308" width="60" height="30" as="geometry" />
        </mxCell>
        <mxCell id="wcBPrysFTeDaV5ZYO1Ei-74" value="&lt;span style=&quot;font-size: 16px;&quot;&gt;&lt;b&gt;Planos de Treinos&lt;/b&gt;&lt;/span&gt;" style="text;html=1;strokeColor=none;fillColor=none;align=center;verticalAlign=middle;whiteSpace=wrap;rounded=0;dashed=1;" parent="1" vertex="1">
          <mxGeometry x="3523" y="4" width="90" height="30" as="geometry" />
        </mxCell>
        <mxCell id="wcBPrysFTeDaV5ZYO1Ei-77" value="&lt;span style=&quot;font-size: 16px;&quot;&gt;&lt;b&gt;Treinos&lt;/b&gt;&lt;/span&gt;" style="text;html=1;strokeColor=none;fillColor=none;align=center;verticalAlign=middle;whiteSpace=wrap;rounded=0;dashed=1;" parent="1" vertex="1">
          <mxGeometry x="4324" y="798" width="90" height="30" as="geometry" />
        </mxCell>
        <mxCell id="6RcUAllsc9Yml11cz0KK-47" value="members_payments" style="shape=table;startSize=30;container=1;collapsible=1;childLayout=tableLayout;fixedRows=1;rowLines=0;fontStyle=1;align=center;resizeLast=1;fillColor=#f8cecc;strokeColor=#b85450;" parent="1" vertex="1">
          <mxGeometry x="1973" y="-660" width="240" height="158" as="geometry" />
        </mxCell>
        <mxCell id="6RcUAllsc9Yml11cz0KK-48" value="" style="shape=tableRow;horizontal=0;startSize=0;swimlaneHead=0;swimlaneBody=0;fillColor=none;collapsible=0;dropTarget=0;points=[[0,0.5],[1,0.5]];portConstraint=eastwest;top=0;left=0;right=0;bottom=1;" parent="6RcUAllsc9Yml11cz0KK-47" vertex="1">
          <mxGeometry y="30" width="240" height="30" as="geometry" />
        </mxCell>
        <mxCell id="6RcUAllsc9Yml11cz0KK-49" value="PK" style="shape=partialRectangle;connectable=0;fillColor=#f5f5f5;top=0;left=0;bottom=0;right=0;fontStyle=1;overflow=hidden;fontColor=#333333;strokeColor=#666666;" parent="6RcUAllsc9Yml11cz0KK-48" vertex="1">
          <mxGeometry width="80" height="30" as="geometry">
            <mxRectangle width="80" height="30" as="alternateBounds" />
          </mxGeometry>
        </mxCell>
        <mxCell id="6RcUAllsc9Yml11cz0KK-50" value="id" style="shape=partialRectangle;connectable=0;fillColor=#f5f5f5;top=0;left=0;bottom=0;right=0;align=left;spacingLeft=6;fontStyle=5;overflow=hidden;fontColor=#333333;strokeColor=#666666;" parent="6RcUAllsc9Yml11cz0KK-48" vertex="1">
          <mxGeometry x="80" width="160" height="30" as="geometry">
            <mxRectangle width="160" height="30" as="alternateBounds" />
          </mxGeometry>
        </mxCell>
        <mxCell id="6RcUAllsc9Yml11cz0KK-51" style="shape=tableRow;horizontal=0;startSize=0;swimlaneHead=0;swimlaneBody=0;fillColor=none;collapsible=0;dropTarget=0;points=[[0,0.5],[1,0.5]];portConstraint=eastwest;top=0;left=0;right=0;bottom=0;" parent="6RcUAllsc9Yml11cz0KK-47" vertex="1">
          <mxGeometry y="60" width="240" height="30" as="geometry" />
        </mxCell>
        <mxCell id="6RcUAllsc9Yml11cz0KK-52" value="FK" style="shape=partialRectangle;connectable=0;fillColor=#f5f5f5;top=0;left=0;bottom=0;right=0;editable=1;overflow=hidden;fontColor=#333333;strokeColor=#666666;" parent="6RcUAllsc9Yml11cz0KK-51" vertex="1">
          <mxGeometry width="80" height="30" as="geometry">
            <mxRectangle width="80" height="30" as="alternateBounds" />
          </mxGeometry>
        </mxCell>
        <mxCell id="6RcUAllsc9Yml11cz0KK-53" value="member_id" style="shape=partialRectangle;connectable=0;fillColor=#f5f5f5;top=0;left=0;bottom=0;right=0;align=left;spacingLeft=6;overflow=hidden;fontColor=#333333;strokeColor=#666666;" parent="6RcUAllsc9Yml11cz0KK-51" vertex="1">
          <mxGeometry x="80" width="160" height="30" as="geometry">
            <mxRectangle width="160" height="30" as="alternateBounds" />
          </mxGeometry>
        </mxCell>
        <mxCell id="6RcUAllsc9Yml11cz0KK-76" style="shape=tableRow;horizontal=0;startSize=0;swimlaneHead=0;swimlaneBody=0;fillColor=none;collapsible=0;dropTarget=0;points=[[0,0.5],[1,0.5]];portConstraint=eastwest;top=0;left=0;right=0;bottom=0;" parent="6RcUAllsc9Yml11cz0KK-47" vertex="1">
          <mxGeometry y="90" width="240" height="34" as="geometry" />
        </mxCell>
        <mxCell id="6RcUAllsc9Yml11cz0KK-77" value="FK" style="shape=partialRectangle;connectable=0;fillColor=#f5f5f5;top=0;left=0;bottom=0;right=0;editable=1;overflow=hidden;fontColor=#333333;strokeColor=#666666;" parent="6RcUAllsc9Yml11cz0KK-76" vertex="1">
          <mxGeometry width="80" height="34" as="geometry">
            <mxRectangle width="80" height="34" as="alternateBounds" />
          </mxGeometry>
        </mxCell>
        <mxCell id="6RcUAllsc9Yml11cz0KK-78" value="payment_details_id" style="shape=partialRectangle;connectable=0;fillColor=#f5f5f5;top=0;left=0;bottom=0;right=0;align=left;spacingLeft=6;overflow=hidden;fontColor=#333333;strokeColor=#666666;" parent="6RcUAllsc9Yml11cz0KK-76" vertex="1">
          <mxGeometry x="80" width="160" height="34" as="geometry">
            <mxRectangle width="160" height="34" as="alternateBounds" />
          </mxGeometry>
        </mxCell>
        <mxCell id="ot_BCaKHzkHSlwnmK5Li-143" style="shape=tableRow;horizontal=0;startSize=0;swimlaneHead=0;swimlaneBody=0;fillColor=none;collapsible=0;dropTarget=0;points=[[0,0.5],[1,0.5]];portConstraint=eastwest;top=0;left=0;right=0;bottom=0;" vertex="1" parent="6RcUAllsc9Yml11cz0KK-47">
          <mxGeometry y="124" width="240" height="34" as="geometry" />
        </mxCell>
        <mxCell id="ot_BCaKHzkHSlwnmK5Li-144" value="FK" style="shape=partialRectangle;connectable=0;fillColor=#f5f5f5;top=0;left=0;bottom=0;right=0;editable=1;overflow=hidden;fontColor=#333333;strokeColor=#666666;" vertex="1" parent="ot_BCaKHzkHSlwnmK5Li-143">
          <mxGeometry width="80" height="34" as="geometry">
            <mxRectangle width="80" height="34" as="alternateBounds" />
          </mxGeometry>
        </mxCell>
        <mxCell id="ot_BCaKHzkHSlwnmK5Li-145" value="gym_id" style="shape=partialRectangle;connectable=0;fillColor=#f5f5f5;top=0;left=0;bottom=0;right=0;align=left;spacingLeft=6;overflow=hidden;fontColor=#333333;strokeColor=#666666;" vertex="1" parent="ot_BCaKHzkHSlwnmK5Li-143">
          <mxGeometry x="80" width="160" height="34" as="geometry">
            <mxRectangle width="160" height="34" as="alternateBounds" />
          </mxGeometry>
        </mxCell>
        <mxCell id="6RcUAllsc9Yml11cz0KK-81" value="settings_options" style="shape=table;startSize=30;container=1;collapsible=1;childLayout=tableLayout;fixedRows=1;rowLines=0;fontStyle=1;align=center;resizeLast=1;" parent="1" vertex="1">
          <mxGeometry x="1478" y="-847" width="240" height="90" as="geometry" />
        </mxCell>
        <mxCell id="6RcUAllsc9Yml11cz0KK-82" value="" style="shape=tableRow;horizontal=0;startSize=0;swimlaneHead=0;swimlaneBody=0;fillColor=none;collapsible=0;dropTarget=0;points=[[0,0.5],[1,0.5]];portConstraint=eastwest;top=0;left=0;right=0;bottom=1;" parent="6RcUAllsc9Yml11cz0KK-81" vertex="1">
          <mxGeometry y="30" width="240" height="30" as="geometry" />
        </mxCell>
        <mxCell id="6RcUAllsc9Yml11cz0KK-83" value="PK" style="shape=partialRectangle;connectable=0;fillColor=#f5f5f5;top=0;left=0;bottom=0;right=0;fontStyle=1;overflow=hidden;fontColor=#333333;strokeColor=#666666;" parent="6RcUAllsc9Yml11cz0KK-82" vertex="1">
          <mxGeometry width="80" height="30" as="geometry">
            <mxRectangle width="80" height="30" as="alternateBounds" />
          </mxGeometry>
        </mxCell>
        <mxCell id="6RcUAllsc9Yml11cz0KK-84" value="id" style="shape=partialRectangle;connectable=0;fillColor=#f5f5f5;top=0;left=0;bottom=0;right=0;align=left;spacingLeft=6;fontStyle=5;overflow=hidden;fontColor=#333333;strokeColor=#666666;" parent="6RcUAllsc9Yml11cz0KK-82" vertex="1">
          <mxGeometry x="80" width="160" height="30" as="geometry">
            <mxRectangle width="160" height="30" as="alternateBounds" />
          </mxGeometry>
        </mxCell>
        <mxCell id="6RcUAllsc9Yml11cz0KK-85" style="shape=tableRow;horizontal=0;startSize=0;swimlaneHead=0;swimlaneBody=0;fillColor=none;collapsible=0;dropTarget=0;points=[[0,0.5],[1,0.5]];portConstraint=eastwest;top=0;left=0;right=0;bottom=0;" parent="6RcUAllsc9Yml11cz0KK-81" vertex="1">
          <mxGeometry y="60" width="240" height="30" as="geometry" />
        </mxCell>
        <mxCell id="6RcUAllsc9Yml11cz0KK-86" value="varchar(64)" style="shape=partialRectangle;connectable=0;fillColor=#f5f5f5;top=0;left=0;bottom=0;right=0;editable=1;overflow=hidden;fontColor=#333333;strokeColor=#666666;" parent="6RcUAllsc9Yml11cz0KK-85" vertex="1">
          <mxGeometry width="80" height="30" as="geometry">
            <mxRectangle width="80" height="30" as="alternateBounds" />
          </mxGeometry>
        </mxCell>
        <mxCell id="6RcUAllsc9Yml11cz0KK-87" value="description" style="shape=partialRectangle;connectable=0;fillColor=#f5f5f5;top=0;left=0;bottom=0;right=0;align=left;spacingLeft=6;overflow=hidden;fontColor=#333333;strokeColor=#666666;" parent="6RcUAllsc9Yml11cz0KK-85" vertex="1">
          <mxGeometry x="80" width="160" height="30" as="geometry">
            <mxRectangle width="160" height="30" as="alternateBounds" />
          </mxGeometry>
        </mxCell>
        <mxCell id="6RcUAllsc9Yml11cz0KK-90" value="" style="edgeStyle=orthogonalEdgeStyle;fontSize=12;html=1;endArrow=ERoneToMany;rounded=0;strokeColor=default;entryX=0.25;entryY=1;entryDx=0;entryDy=0;exitX=0.75;exitY=0;exitDx=0;exitDy=0;" parent="1" target="6RcUAllsc9Yml11cz0KK-47" edge="1" source="nS6iPJSSFPPUDI0pfMjD-29">
          <mxGeometry width="100" height="100" relative="1" as="geometry">
            <mxPoint x="1930" y="-460" as="sourcePoint" />
            <mxPoint x="2070" y="-630" as="targetPoint" />
          </mxGeometry>
        </mxCell>
        <mxCell id="6RcUAllsc9Yml11cz0KK-99" value="&lt;span style=&quot;font-size: 16px;&quot;&gt;&lt;b&gt;Membro&lt;/b&gt;&lt;/span&gt;" style="text;html=1;strokeColor=none;fillColor=none;align=center;verticalAlign=middle;whiteSpace=wrap;rounded=0;dashed=1;" parent="1" vertex="1">
          <mxGeometry x="2355" y="4" width="60" height="30" as="geometry" />
        </mxCell>
        <mxCell id="ot_BCaKHzkHSlwnmK5Li-1" value="gyms_members" style="shape=table;startSize=30;container=1;collapsible=1;childLayout=tableLayout;fixedRows=1;rowLines=0;fontStyle=1;align=center;resizeLast=1;fillColor=#f8cecc;strokeColor=#b85450;" vertex="1" parent="1">
          <mxGeometry x="1385" y="216" width="240" height="120" as="geometry" />
        </mxCell>
        <mxCell id="ot_BCaKHzkHSlwnmK5Li-2" value="" style="shape=tableRow;horizontal=0;startSize=0;swimlaneHead=0;swimlaneBody=0;fillColor=none;collapsible=0;dropTarget=0;points=[[0,0.5],[1,0.5]];portConstraint=eastwest;top=0;left=0;right=0;bottom=1;" vertex="1" parent="ot_BCaKHzkHSlwnmK5Li-1">
          <mxGeometry y="30" width="240" height="30" as="geometry" />
        </mxCell>
        <mxCell id="ot_BCaKHzkHSlwnmK5Li-3" value="PK" style="shape=partialRectangle;connectable=0;fillColor=#f5f5f5;top=0;left=0;bottom=0;right=0;fontStyle=1;overflow=hidden;fontColor=#333333;strokeColor=#666666;" vertex="1" parent="ot_BCaKHzkHSlwnmK5Li-2">
          <mxGeometry width="80" height="30" as="geometry">
            <mxRectangle width="80" height="30" as="alternateBounds" />
          </mxGeometry>
        </mxCell>
        <mxCell id="ot_BCaKHzkHSlwnmK5Li-4" value="id" style="shape=partialRectangle;connectable=0;fillColor=#f5f5f5;top=0;left=0;bottom=0;right=0;align=left;spacingLeft=6;fontStyle=5;overflow=hidden;fontColor=#333333;strokeColor=#666666;" vertex="1" parent="ot_BCaKHzkHSlwnmK5Li-2">
          <mxGeometry x="80" width="160" height="30" as="geometry">
            <mxRectangle width="160" height="30" as="alternateBounds" />
          </mxGeometry>
        </mxCell>
        <mxCell id="ot_BCaKHzkHSlwnmK5Li-5" style="shape=tableRow;horizontal=0;startSize=0;swimlaneHead=0;swimlaneBody=0;fillColor=none;collapsible=0;dropTarget=0;points=[[0,0.5],[1,0.5]];portConstraint=eastwest;top=0;left=0;right=0;bottom=0;" vertex="1" parent="ot_BCaKHzkHSlwnmK5Li-1">
          <mxGeometry y="60" width="240" height="30" as="geometry" />
        </mxCell>
        <mxCell id="ot_BCaKHzkHSlwnmK5Li-6" value="FK" style="shape=partialRectangle;connectable=0;fillColor=#f5f5f5;top=0;left=0;bottom=0;right=0;editable=1;overflow=hidden;fontColor=#333333;strokeColor=#666666;" vertex="1" parent="ot_BCaKHzkHSlwnmK5Li-5">
          <mxGeometry width="80" height="30" as="geometry">
            <mxRectangle width="80" height="30" as="alternateBounds" />
          </mxGeometry>
        </mxCell>
        <mxCell id="ot_BCaKHzkHSlwnmK5Li-7" value="member_id" style="shape=partialRectangle;connectable=0;fillColor=#f5f5f5;top=0;left=0;bottom=0;right=0;align=left;spacingLeft=6;overflow=hidden;fontColor=#333333;strokeColor=#666666;whiteSpace=wrap;flipH=1;" vertex="1" parent="ot_BCaKHzkHSlwnmK5Li-5">
          <mxGeometry x="80" width="160" height="30" as="geometry">
            <mxRectangle width="160" height="30" as="alternateBounds" />
          </mxGeometry>
        </mxCell>
        <mxCell id="ot_BCaKHzkHSlwnmK5Li-29" style="shape=tableRow;horizontal=0;startSize=0;swimlaneHead=0;swimlaneBody=0;fillColor=none;collapsible=0;dropTarget=0;points=[[0,0.5],[1,0.5]];portConstraint=eastwest;top=0;left=0;right=0;bottom=0;" vertex="1" parent="ot_BCaKHzkHSlwnmK5Li-1">
          <mxGeometry y="90" width="240" height="30" as="geometry" />
        </mxCell>
        <mxCell id="ot_BCaKHzkHSlwnmK5Li-30" value="FK" style="shape=partialRectangle;connectable=0;fillColor=#f5f5f5;top=0;left=0;bottom=0;right=0;editable=1;overflow=hidden;fontColor=#333333;strokeColor=#666666;" vertex="1" parent="ot_BCaKHzkHSlwnmK5Li-29">
          <mxGeometry width="80" height="30" as="geometry">
            <mxRectangle width="80" height="30" as="alternateBounds" />
          </mxGeometry>
        </mxCell>
        <mxCell id="ot_BCaKHzkHSlwnmK5Li-31" value="gym_id" style="shape=partialRectangle;connectable=0;fillColor=#f5f5f5;top=0;left=0;bottom=0;right=0;align=left;spacingLeft=6;overflow=hidden;fontColor=#333333;strokeColor=#666666;whiteSpace=wrap;" vertex="1" parent="ot_BCaKHzkHSlwnmK5Li-29">
          <mxGeometry x="80" width="160" height="30" as="geometry">
            <mxRectangle width="160" height="30" as="alternateBounds" />
          </mxGeometry>
        </mxCell>
        <mxCell id="ot_BCaKHzkHSlwnmK5Li-32" value="providers" style="shape=table;startSize=30;container=1;collapsible=1;childLayout=tableLayout;fixedRows=1;rowLines=0;fontStyle=1;align=center;resizeLast=1;" vertex="1" parent="1">
          <mxGeometry x="1287" y="1151" width="240" height="90" as="geometry" />
        </mxCell>
        <mxCell id="ot_BCaKHzkHSlwnmK5Li-33" value="" style="shape=tableRow;horizontal=0;startSize=0;swimlaneHead=0;swimlaneBody=0;fillColor=none;collapsible=0;dropTarget=0;points=[[0,0.5],[1,0.5]];portConstraint=eastwest;top=0;left=0;right=0;bottom=1;" vertex="1" parent="ot_BCaKHzkHSlwnmK5Li-32">
          <mxGeometry y="30" width="240" height="30" as="geometry" />
        </mxCell>
        <mxCell id="ot_BCaKHzkHSlwnmK5Li-34" value="PK" style="shape=partialRectangle;connectable=0;fillColor=#f5f5f5;top=0;left=0;bottom=0;right=0;fontStyle=1;overflow=hidden;fontColor=#333333;strokeColor=#666666;" vertex="1" parent="ot_BCaKHzkHSlwnmK5Li-33">
          <mxGeometry width="80" height="30" as="geometry">
            <mxRectangle width="80" height="30" as="alternateBounds" />
          </mxGeometry>
        </mxCell>
        <mxCell id="ot_BCaKHzkHSlwnmK5Li-35" value="id" style="shape=partialRectangle;connectable=0;fillColor=#f5f5f5;top=0;left=0;bottom=0;right=0;align=left;spacingLeft=6;fontStyle=5;overflow=hidden;fontColor=#333333;strokeColor=#666666;" vertex="1" parent="ot_BCaKHzkHSlwnmK5Li-33">
          <mxGeometry x="80" width="160" height="30" as="geometry">
            <mxRectangle width="160" height="30" as="alternateBounds" />
          </mxGeometry>
        </mxCell>
        <mxCell id="ot_BCaKHzkHSlwnmK5Li-36" style="shape=tableRow;horizontal=0;startSize=0;swimlaneHead=0;swimlaneBody=0;fillColor=none;collapsible=0;dropTarget=0;points=[[0,0.5],[1,0.5]];portConstraint=eastwest;top=0;left=0;right=0;bottom=0;" vertex="1" parent="ot_BCaKHzkHSlwnmK5Li-32">
          <mxGeometry y="60" width="240" height="30" as="geometry" />
        </mxCell>
        <mxCell id="ot_BCaKHzkHSlwnmK5Li-37" value="varchar(256)" style="shape=partialRectangle;connectable=0;fillColor=#f5f5f5;top=0;left=0;bottom=0;right=0;editable=1;overflow=hidden;fontColor=#333333;strokeColor=#666666;" vertex="1" parent="ot_BCaKHzkHSlwnmK5Li-36">
          <mxGeometry width="80" height="30" as="geometry">
            <mxRectangle width="80" height="30" as="alternateBounds" />
          </mxGeometry>
        </mxCell>
        <mxCell id="ot_BCaKHzkHSlwnmK5Li-38" value="name" style="shape=partialRectangle;connectable=0;fillColor=#f5f5f5;top=0;left=0;bottom=0;right=0;align=left;spacingLeft=6;overflow=hidden;fontColor=#333333;strokeColor=#666666;" vertex="1" parent="ot_BCaKHzkHSlwnmK5Li-36">
          <mxGeometry x="80" width="160" height="30" as="geometry">
            <mxRectangle width="160" height="30" as="alternateBounds" />
          </mxGeometry>
        </mxCell>
        <mxCell id="ot_BCaKHzkHSlwnmK5Li-40" value="" style="edgeStyle=entityRelationEdgeStyle;fontSize=12;html=1;endArrow=ERoneToMany;rounded=0;entryX=0;entryY=0.5;entryDx=0;entryDy=0;exitX=1.005;exitY=0.751;exitDx=0;exitDy=0;exitPerimeter=0;" edge="1" parent="1" source="ot_BCaKHzkHSlwnmK5Li-33" target="CnmkukpoRnF5Mc1D4gRC-36">
          <mxGeometry width="100" height="100" relative="1" as="geometry">
            <mxPoint x="1967.8400000000001" y="1221.1499999999996" as="sourcePoint" />
            <mxPoint x="1865" y="1225.4999999999995" as="targetPoint" />
          </mxGeometry>
        </mxCell>
        <mxCell id="ot_BCaKHzkHSlwnmK5Li-53" value="members_settings" style="shape=table;startSize=30;container=1;collapsible=1;childLayout=tableLayout;fixedRows=1;rowLines=0;fontStyle=1;align=center;resizeLast=1;fillColor=#f8cecc;strokeColor=#b85450;" vertex="1" parent="1">
          <mxGeometry x="1489" y="-625" width="240" height="120" as="geometry" />
        </mxCell>
        <mxCell id="ot_BCaKHzkHSlwnmK5Li-54" value="" style="shape=tableRow;horizontal=0;startSize=0;swimlaneHead=0;swimlaneBody=0;fillColor=none;collapsible=0;dropTarget=0;points=[[0,0.5],[1,0.5]];portConstraint=eastwest;top=0;left=0;right=0;bottom=1;" vertex="1" parent="ot_BCaKHzkHSlwnmK5Li-53">
          <mxGeometry y="30" width="240" height="30" as="geometry" />
        </mxCell>
        <mxCell id="ot_BCaKHzkHSlwnmK5Li-55" value="PK" style="shape=partialRectangle;connectable=0;fillColor=#f5f5f5;top=0;left=0;bottom=0;right=0;fontStyle=1;overflow=hidden;fontColor=#333333;strokeColor=#666666;" vertex="1" parent="ot_BCaKHzkHSlwnmK5Li-54">
          <mxGeometry width="80" height="30" as="geometry">
            <mxRectangle width="80" height="30" as="alternateBounds" />
          </mxGeometry>
        </mxCell>
        <mxCell id="ot_BCaKHzkHSlwnmK5Li-56" value="id" style="shape=partialRectangle;connectable=0;fillColor=#f5f5f5;top=0;left=0;bottom=0;right=0;align=left;spacingLeft=6;fontStyle=5;overflow=hidden;fontColor=#333333;strokeColor=#666666;" vertex="1" parent="ot_BCaKHzkHSlwnmK5Li-54">
          <mxGeometry x="80" width="160" height="30" as="geometry">
            <mxRectangle width="160" height="30" as="alternateBounds" />
          </mxGeometry>
        </mxCell>
        <mxCell id="ot_BCaKHzkHSlwnmK5Li-57" style="shape=tableRow;horizontal=0;startSize=0;swimlaneHead=0;swimlaneBody=0;fillColor=none;collapsible=0;dropTarget=0;points=[[0,0.5],[1,0.5]];portConstraint=eastwest;top=0;left=0;right=0;bottom=0;" vertex="1" parent="ot_BCaKHzkHSlwnmK5Li-53">
          <mxGeometry y="60" width="240" height="30" as="geometry" />
        </mxCell>
        <mxCell id="ot_BCaKHzkHSlwnmK5Li-58" value="FK" style="shape=partialRectangle;connectable=0;fillColor=#f5f5f5;top=0;left=0;bottom=0;right=0;editable=1;overflow=hidden;fontColor=#333333;strokeColor=#666666;" vertex="1" parent="ot_BCaKHzkHSlwnmK5Li-57">
          <mxGeometry width="80" height="30" as="geometry">
            <mxRectangle width="80" height="30" as="alternateBounds" />
          </mxGeometry>
        </mxCell>
        <mxCell id="ot_BCaKHzkHSlwnmK5Li-59" value="member_id" style="shape=partialRectangle;connectable=0;fillColor=#f5f5f5;top=0;left=0;bottom=0;right=0;align=left;spacingLeft=6;overflow=hidden;fontColor=#333333;strokeColor=#666666;" vertex="1" parent="ot_BCaKHzkHSlwnmK5Li-57">
          <mxGeometry x="80" width="160" height="30" as="geometry">
            <mxRectangle width="160" height="30" as="alternateBounds" />
          </mxGeometry>
        </mxCell>
        <mxCell id="ot_BCaKHzkHSlwnmK5Li-60" style="shape=tableRow;horizontal=0;startSize=0;swimlaneHead=0;swimlaneBody=0;fillColor=none;collapsible=0;dropTarget=0;points=[[0,0.5],[1,0.5]];portConstraint=eastwest;top=0;left=0;right=0;bottom=0;" vertex="1" parent="ot_BCaKHzkHSlwnmK5Li-53">
          <mxGeometry y="90" width="240" height="30" as="geometry" />
        </mxCell>
        <mxCell id="ot_BCaKHzkHSlwnmK5Li-61" value="FK" style="shape=partialRectangle;connectable=0;fillColor=#f5f5f5;top=0;left=0;bottom=0;right=0;editable=1;overflow=hidden;fontColor=#333333;strokeColor=#666666;" vertex="1" parent="ot_BCaKHzkHSlwnmK5Li-60">
          <mxGeometry width="80" height="30" as="geometry">
            <mxRectangle width="80" height="30" as="alternateBounds" />
          </mxGeometry>
        </mxCell>
        <mxCell id="ot_BCaKHzkHSlwnmK5Li-62" value="settings_options_id" style="shape=partialRectangle;connectable=0;fillColor=#f5f5f5;top=0;left=0;bottom=0;right=0;align=left;spacingLeft=6;overflow=hidden;fontColor=#333333;strokeColor=#666666;" vertex="1" parent="ot_BCaKHzkHSlwnmK5Li-60">
          <mxGeometry x="80" width="160" height="30" as="geometry">
            <mxRectangle width="160" height="30" as="alternateBounds" />
          </mxGeometry>
        </mxCell>
        <mxCell id="ot_BCaKHzkHSlwnmK5Li-63" value="" style="edgeStyle=orthogonalEdgeStyle;fontSize=12;html=1;endArrow=ERoneToMany;rounded=0;strokeColor=default;entryX=0.458;entryY=0;entryDx=0;entryDy=0;entryPerimeter=0;exitX=0.5;exitY=1;exitDx=0;exitDy=0;" edge="1" parent="1" source="6RcUAllsc9Yml11cz0KK-81" target="ot_BCaKHzkHSlwnmK5Li-53">
          <mxGeometry width="100" height="100" relative="1" as="geometry">
            <mxPoint x="1940" y="-449.9999999999998" as="sourcePoint" />
            <mxPoint x="2100" y="-725" as="targetPoint" />
          </mxGeometry>
        </mxCell>
        <mxCell id="ot_BCaKHzkHSlwnmK5Li-64" value="" style="edgeStyle=orthogonalEdgeStyle;fontSize=12;html=1;endArrow=ERoneToMany;rounded=0;strokeColor=default;entryX=0.458;entryY=1;entryDx=0;entryDy=0;entryPerimeter=0;exitX=0.25;exitY=0;exitDx=0;exitDy=0;" edge="1" parent="1" source="nS6iPJSSFPPUDI0pfMjD-29" target="ot_BCaKHzkHSlwnmK5Li-60">
          <mxGeometry width="100" height="100" relative="1" as="geometry">
            <mxPoint x="1450.0000000000005" y="-810" as="sourcePoint" />
            <mxPoint x="1689.92" y="-650" as="targetPoint" />
          </mxGeometry>
        </mxCell>
        <mxCell id="ot_BCaKHzkHSlwnmK5Li-65" value="payments_details" style="shape=table;startSize=30;container=1;collapsible=1;childLayout=tableLayout;fixedRows=1;rowLines=0;fontStyle=1;align=center;resizeLast=1;" vertex="1" parent="1">
          <mxGeometry x="1898" y="-1031" width="270" height="294" as="geometry" />
        </mxCell>
        <mxCell id="ot_BCaKHzkHSlwnmK5Li-66" value="" style="shape=tableRow;horizontal=0;startSize=0;swimlaneHead=0;swimlaneBody=0;fillColor=none;collapsible=0;dropTarget=0;points=[[0,0.5],[1,0.5]];portConstraint=eastwest;top=0;left=0;right=0;bottom=1;" vertex="1" parent="ot_BCaKHzkHSlwnmK5Li-65">
          <mxGeometry y="30" width="270" height="30" as="geometry" />
        </mxCell>
        <mxCell id="ot_BCaKHzkHSlwnmK5Li-67" value="PK" style="shape=partialRectangle;connectable=0;fillColor=#f5f5f5;top=0;left=0;bottom=0;right=0;fontStyle=1;overflow=hidden;fontColor=#333333;strokeColor=#666666;" vertex="1" parent="ot_BCaKHzkHSlwnmK5Li-66">
          <mxGeometry width="100" height="30" as="geometry">
            <mxRectangle width="100" height="30" as="alternateBounds" />
          </mxGeometry>
        </mxCell>
        <mxCell id="ot_BCaKHzkHSlwnmK5Li-68" value="id" style="shape=partialRectangle;connectable=0;fillColor=#f5f5f5;top=0;left=0;bottom=0;right=0;align=left;spacingLeft=6;fontStyle=5;overflow=hidden;fontColor=#333333;strokeColor=#666666;" vertex="1" parent="ot_BCaKHzkHSlwnmK5Li-66">
          <mxGeometry x="100" width="170" height="30" as="geometry">
            <mxRectangle width="170" height="30" as="alternateBounds" />
          </mxGeometry>
        </mxCell>
        <mxCell id="ot_BCaKHzkHSlwnmK5Li-69" style="shape=tableRow;horizontal=0;startSize=0;swimlaneHead=0;swimlaneBody=0;fillColor=none;collapsible=0;dropTarget=0;points=[[0,0.5],[1,0.5]];portConstraint=eastwest;top=0;left=0;right=0;bottom=0;" vertex="1" parent="ot_BCaKHzkHSlwnmK5Li-65">
          <mxGeometry y="60" width="270" height="30" as="geometry" />
        </mxCell>
        <mxCell id="ot_BCaKHzkHSlwnmK5Li-70" value="decimal(16,2)" style="shape=partialRectangle;connectable=0;fillColor=#f5f5f5;top=0;left=0;bottom=0;right=0;editable=1;overflow=hidden;fontColor=#333333;strokeColor=#666666;" vertex="1" parent="ot_BCaKHzkHSlwnmK5Li-69">
          <mxGeometry width="100" height="30" as="geometry">
            <mxRectangle width="100" height="30" as="alternateBounds" />
          </mxGeometry>
        </mxCell>
        <mxCell id="ot_BCaKHzkHSlwnmK5Li-71" value="member_id" style="shape=partialRectangle;connectable=0;fillColor=#f5f5f5;top=0;left=0;bottom=0;right=0;align=left;spacingLeft=6;overflow=hidden;fontColor=#333333;strokeColor=#666666;" vertex="1" parent="ot_BCaKHzkHSlwnmK5Li-69">
          <mxGeometry x="100" width="170" height="30" as="geometry">
            <mxRectangle width="170" height="30" as="alternateBounds" />
          </mxGeometry>
        </mxCell>
        <mxCell id="ot_BCaKHzkHSlwnmK5Li-72" style="shape=tableRow;horizontal=0;startSize=0;swimlaneHead=0;swimlaneBody=0;fillColor=none;collapsible=0;dropTarget=0;points=[[0,0.5],[1,0.5]];portConstraint=eastwest;top=0;left=0;right=0;bottom=0;" vertex="1" parent="ot_BCaKHzkHSlwnmK5Li-65">
          <mxGeometry y="90" width="270" height="34" as="geometry" />
        </mxCell>
        <mxCell id="ot_BCaKHzkHSlwnmK5Li-73" value="FK" style="shape=partialRectangle;connectable=0;fillColor=#f5f5f5;top=0;left=0;bottom=0;right=0;editable=1;overflow=hidden;fontColor=#333333;strokeColor=#666666;" vertex="1" parent="ot_BCaKHzkHSlwnmK5Li-72">
          <mxGeometry width="100" height="34" as="geometry">
            <mxRectangle width="100" height="34" as="alternateBounds" />
          </mxGeometry>
        </mxCell>
        <mxCell id="ot_BCaKHzkHSlwnmK5Li-74" value="payment_details_id" style="shape=partialRectangle;connectable=0;fillColor=#f5f5f5;top=0;left=0;bottom=0;right=0;align=left;spacingLeft=6;overflow=hidden;fontColor=#333333;strokeColor=#666666;" vertex="1" parent="ot_BCaKHzkHSlwnmK5Li-72">
          <mxGeometry x="100" width="170" height="34" as="geometry">
            <mxRectangle width="170" height="34" as="alternateBounds" />
          </mxGeometry>
        </mxCell>
        <mxCell id="ot_BCaKHzkHSlwnmK5Li-107" style="shape=tableRow;horizontal=0;startSize=0;swimlaneHead=0;swimlaneBody=0;fillColor=none;collapsible=0;dropTarget=0;points=[[0,0.5],[1,0.5]];portConstraint=eastwest;top=0;left=0;right=0;bottom=0;" vertex="1" parent="ot_BCaKHzkHSlwnmK5Li-65">
          <mxGeometry y="124" width="270" height="34" as="geometry" />
        </mxCell>
        <mxCell id="ot_BCaKHzkHSlwnmK5Li-108" value="decimal(10,2)" style="shape=partialRectangle;connectable=0;fillColor=#f5f5f5;top=0;left=0;bottom=0;right=0;editable=1;overflow=hidden;fontColor=#333333;strokeColor=#666666;" vertex="1" parent="ot_BCaKHzkHSlwnmK5Li-107">
          <mxGeometry width="100" height="34" as="geometry">
            <mxRectangle width="100" height="34" as="alternateBounds" />
          </mxGeometry>
        </mxCell>
        <mxCell id="ot_BCaKHzkHSlwnmK5Li-109" value="price" style="shape=partialRectangle;connectable=0;fillColor=#f5f5f5;top=0;left=0;bottom=0;right=0;align=left;spacingLeft=6;overflow=hidden;fontColor=#333333;strokeColor=#666666;" vertex="1" parent="ot_BCaKHzkHSlwnmK5Li-107">
          <mxGeometry x="100" width="170" height="34" as="geometry">
            <mxRectangle width="170" height="34" as="alternateBounds" />
          </mxGeometry>
        </mxCell>
        <mxCell id="ot_BCaKHzkHSlwnmK5Li-104" style="shape=tableRow;horizontal=0;startSize=0;swimlaneHead=0;swimlaneBody=0;fillColor=none;collapsible=0;dropTarget=0;points=[[0,0.5],[1,0.5]];portConstraint=eastwest;top=0;left=0;right=0;bottom=0;" vertex="1" parent="ot_BCaKHzkHSlwnmK5Li-65">
          <mxGeometry y="158" width="270" height="34" as="geometry" />
        </mxCell>
        <mxCell id="ot_BCaKHzkHSlwnmK5Li-105" value="date" style="shape=partialRectangle;connectable=0;fillColor=#f5f5f5;top=0;left=0;bottom=0;right=0;editable=1;overflow=hidden;fontColor=#333333;strokeColor=#666666;" vertex="1" parent="ot_BCaKHzkHSlwnmK5Li-104">
          <mxGeometry width="100" height="34" as="geometry">
            <mxRectangle width="100" height="34" as="alternateBounds" />
          </mxGeometry>
        </mxCell>
        <mxCell id="ot_BCaKHzkHSlwnmK5Li-106" value="due_date" style="shape=partialRectangle;connectable=0;fillColor=#f5f5f5;top=0;left=0;bottom=0;right=0;align=left;spacingLeft=6;overflow=hidden;fontColor=#333333;strokeColor=#666666;" vertex="1" parent="ot_BCaKHzkHSlwnmK5Li-104">
          <mxGeometry x="100" width="170" height="34" as="geometry">
            <mxRectangle width="170" height="34" as="alternateBounds" />
          </mxGeometry>
        </mxCell>
        <mxCell id="ot_BCaKHzkHSlwnmK5Li-101" style="shape=tableRow;horizontal=0;startSize=0;swimlaneHead=0;swimlaneBody=0;fillColor=none;collapsible=0;dropTarget=0;points=[[0,0.5],[1,0.5]];portConstraint=eastwest;top=0;left=0;right=0;bottom=0;" vertex="1" parent="ot_BCaKHzkHSlwnmK5Li-65">
          <mxGeometry y="192" width="270" height="34" as="geometry" />
        </mxCell>
        <mxCell id="ot_BCaKHzkHSlwnmK5Li-102" value="date" style="shape=partialRectangle;connectable=0;fillColor=#f5f5f5;top=0;left=0;bottom=0;right=0;editable=1;overflow=hidden;fontColor=#333333;strokeColor=#666666;" vertex="1" parent="ot_BCaKHzkHSlwnmK5Li-101">
          <mxGeometry width="100" height="34" as="geometry">
            <mxRectangle width="100" height="34" as="alternateBounds" />
          </mxGeometry>
        </mxCell>
        <mxCell id="ot_BCaKHzkHSlwnmK5Li-103" value="payment_date" style="shape=partialRectangle;connectable=0;fillColor=#f5f5f5;top=0;left=0;bottom=0;right=0;align=left;spacingLeft=6;overflow=hidden;fontColor=#333333;strokeColor=#666666;" vertex="1" parent="ot_BCaKHzkHSlwnmK5Li-101">
          <mxGeometry x="100" width="170" height="34" as="geometry">
            <mxRectangle width="170" height="34" as="alternateBounds" />
          </mxGeometry>
        </mxCell>
        <mxCell id="ot_BCaKHzkHSlwnmK5Li-98" style="shape=tableRow;horizontal=0;startSize=0;swimlaneHead=0;swimlaneBody=0;fillColor=none;collapsible=0;dropTarget=0;points=[[0,0.5],[1,0.5]];portConstraint=eastwest;top=0;left=0;right=0;bottom=0;" vertex="1" parent="ot_BCaKHzkHSlwnmK5Li-65">
          <mxGeometry y="226" width="270" height="34" as="geometry" />
        </mxCell>
        <mxCell id="ot_BCaKHzkHSlwnmK5Li-99" value="varchar(64)" style="shape=partialRectangle;connectable=0;fillColor=#f5f5f5;top=0;left=0;bottom=0;right=0;editable=1;overflow=hidden;fontColor=#333333;strokeColor=#666666;" vertex="1" parent="ot_BCaKHzkHSlwnmK5Li-98">
          <mxGeometry width="100" height="34" as="geometry">
            <mxRectangle width="100" height="34" as="alternateBounds" />
          </mxGeometry>
        </mxCell>
        <mxCell id="ot_BCaKHzkHSlwnmK5Li-100" value="method" style="shape=partialRectangle;connectable=0;fillColor=#f5f5f5;top=0;left=0;bottom=0;right=0;align=left;spacingLeft=6;overflow=hidden;fontColor=#333333;strokeColor=#666666;" vertex="1" parent="ot_BCaKHzkHSlwnmK5Li-98">
          <mxGeometry x="100" width="170" height="34" as="geometry">
            <mxRectangle width="170" height="34" as="alternateBounds" />
          </mxGeometry>
        </mxCell>
        <mxCell id="ot_BCaKHzkHSlwnmK5Li-95" style="shape=tableRow;horizontal=0;startSize=0;swimlaneHead=0;swimlaneBody=0;fillColor=none;collapsible=0;dropTarget=0;points=[[0,0.5],[1,0.5]];portConstraint=eastwest;top=0;left=0;right=0;bottom=0;" vertex="1" parent="ot_BCaKHzkHSlwnmK5Li-65">
          <mxGeometry y="260" width="270" height="34" as="geometry" />
        </mxCell>
        <mxCell id="ot_BCaKHzkHSlwnmK5Li-96" style="shape=partialRectangle;connectable=0;fillColor=#f5f5f5;top=0;left=0;bottom=0;right=0;editable=1;overflow=hidden;fontColor=#333333;strokeColor=#666666;" vertex="1" parent="ot_BCaKHzkHSlwnmK5Li-95">
          <mxGeometry width="100" height="34" as="geometry">
            <mxRectangle width="100" height="34" as="alternateBounds" />
          </mxGeometry>
        </mxCell>
        <mxCell id="ot_BCaKHzkHSlwnmK5Li-97" style="shape=partialRectangle;connectable=0;fillColor=#f5f5f5;top=0;left=0;bottom=0;right=0;align=left;spacingLeft=6;overflow=hidden;fontColor=#333333;strokeColor=#666666;" vertex="1" parent="ot_BCaKHzkHSlwnmK5Li-95">
          <mxGeometry x="100" width="170" height="34" as="geometry">
            <mxRectangle width="170" height="34" as="alternateBounds" />
          </mxGeometry>
        </mxCell>
        <mxCell id="ot_BCaKHzkHSlwnmK5Li-111" value="" style="edgeStyle=orthogonalEdgeStyle;fontSize=12;html=1;endArrow=ERoneToMany;rounded=0;strokeColor=default;entryX=0.5;entryY=0;entryDx=0;entryDy=0;exitX=0.505;exitY=1.049;exitDx=0;exitDy=0;exitPerimeter=0;" edge="1" parent="1" source="ot_BCaKHzkHSlwnmK5Li-95" target="6RcUAllsc9Yml11cz0KK-47">
          <mxGeometry width="100" height="100" relative="1" as="geometry">
            <mxPoint x="1980.9195402298851" y="-740" as="sourcePoint" />
            <mxPoint x="1689.9199999999996" y="-650" as="targetPoint" />
            <Array as="points">
              <mxPoint x="2030" y="-735" />
              <mxPoint x="2030" y="-660" />
            </Array>
          </mxGeometry>
        </mxCell>
        <mxCell id="ot_BCaKHzkHSlwnmK5Li-115" value="" style="edgeStyle=orthogonalEdgeStyle;fontSize=12;html=1;endArrow=ERoneToMany;rounded=0;exitX=0.5;exitY=0;exitDx=0;exitDy=0;entryX=0.493;entryY=0.991;entryDx=0;entryDy=0;entryPerimeter=0;" edge="1" parent="1" source="DIrFXB5llvS2kj0vWRAP-24" target="DIrFXB5llvS2kj0vWRAP-18">
          <mxGeometry width="100" height="100" relative="1" as="geometry">
            <mxPoint x="2735" y="240" as="sourcePoint" />
            <mxPoint x="2952" y="-98" as="targetPoint" />
          </mxGeometry>
        </mxCell>
        <mxCell id="ot_BCaKHzkHSlwnmK5Li-117" value="gyms_employees" style="shape=table;startSize=30;container=1;collapsible=1;childLayout=tableLayout;fixedRows=1;rowLines=0;fontStyle=1;align=center;resizeLast=1;fillColor=#f8cecc;strokeColor=#b85450;" vertex="1" parent="1">
          <mxGeometry x="1933" y="216" width="240" height="120" as="geometry" />
        </mxCell>
        <mxCell id="ot_BCaKHzkHSlwnmK5Li-118" value="" style="shape=tableRow;horizontal=0;startSize=0;swimlaneHead=0;swimlaneBody=0;fillColor=none;collapsible=0;dropTarget=0;points=[[0,0.5],[1,0.5]];portConstraint=eastwest;top=0;left=0;right=0;bottom=1;" vertex="1" parent="ot_BCaKHzkHSlwnmK5Li-117">
          <mxGeometry y="30" width="240" height="30" as="geometry" />
        </mxCell>
        <mxCell id="ot_BCaKHzkHSlwnmK5Li-119" value="PK" style="shape=partialRectangle;connectable=0;fillColor=#f5f5f5;top=0;left=0;bottom=0;right=0;fontStyle=1;overflow=hidden;fontColor=#333333;strokeColor=#666666;" vertex="1" parent="ot_BCaKHzkHSlwnmK5Li-118">
          <mxGeometry width="80" height="30" as="geometry">
            <mxRectangle width="80" height="30" as="alternateBounds" />
          </mxGeometry>
        </mxCell>
        <mxCell id="ot_BCaKHzkHSlwnmK5Li-120" value="id" style="shape=partialRectangle;connectable=0;fillColor=#f5f5f5;top=0;left=0;bottom=0;right=0;align=left;spacingLeft=6;fontStyle=5;overflow=hidden;fontColor=#333333;strokeColor=#666666;" vertex="1" parent="ot_BCaKHzkHSlwnmK5Li-118">
          <mxGeometry x="80" width="160" height="30" as="geometry">
            <mxRectangle width="160" height="30" as="alternateBounds" />
          </mxGeometry>
        </mxCell>
        <mxCell id="ot_BCaKHzkHSlwnmK5Li-121" style="shape=tableRow;horizontal=0;startSize=0;swimlaneHead=0;swimlaneBody=0;fillColor=none;collapsible=0;dropTarget=0;points=[[0,0.5],[1,0.5]];portConstraint=eastwest;top=0;left=0;right=0;bottom=0;" vertex="1" parent="ot_BCaKHzkHSlwnmK5Li-117">
          <mxGeometry y="60" width="240" height="30" as="geometry" />
        </mxCell>
        <mxCell id="ot_BCaKHzkHSlwnmK5Li-122" value="FK" style="shape=partialRectangle;connectable=0;fillColor=#f5f5f5;top=0;left=0;bottom=0;right=0;editable=1;overflow=hidden;fontColor=#333333;strokeColor=#666666;" vertex="1" parent="ot_BCaKHzkHSlwnmK5Li-121">
          <mxGeometry width="80" height="30" as="geometry">
            <mxRectangle width="80" height="30" as="alternateBounds" />
          </mxGeometry>
        </mxCell>
        <mxCell id="ot_BCaKHzkHSlwnmK5Li-123" value="member_id" style="shape=partialRectangle;connectable=0;fillColor=#f5f5f5;top=0;left=0;bottom=0;right=0;align=left;spacingLeft=6;overflow=hidden;fontColor=#333333;strokeColor=#666666;whiteSpace=wrap;flipH=1;" vertex="1" parent="ot_BCaKHzkHSlwnmK5Li-121">
          <mxGeometry x="80" width="160" height="30" as="geometry">
            <mxRectangle width="160" height="30" as="alternateBounds" />
          </mxGeometry>
        </mxCell>
        <mxCell id="ot_BCaKHzkHSlwnmK5Li-124" style="shape=tableRow;horizontal=0;startSize=0;swimlaneHead=0;swimlaneBody=0;fillColor=none;collapsible=0;dropTarget=0;points=[[0,0.5],[1,0.5]];portConstraint=eastwest;top=0;left=0;right=0;bottom=0;" vertex="1" parent="ot_BCaKHzkHSlwnmK5Li-117">
          <mxGeometry y="90" width="240" height="30" as="geometry" />
        </mxCell>
        <mxCell id="ot_BCaKHzkHSlwnmK5Li-125" value="FK" style="shape=partialRectangle;connectable=0;fillColor=#f5f5f5;top=0;left=0;bottom=0;right=0;editable=1;overflow=hidden;fontColor=#333333;strokeColor=#666666;" vertex="1" parent="ot_BCaKHzkHSlwnmK5Li-124">
          <mxGeometry width="80" height="30" as="geometry">
            <mxRectangle width="80" height="30" as="alternateBounds" />
          </mxGeometry>
        </mxCell>
        <mxCell id="ot_BCaKHzkHSlwnmK5Li-126" value="gym_id" style="shape=partialRectangle;connectable=0;fillColor=#f5f5f5;top=0;left=0;bottom=0;right=0;align=left;spacingLeft=6;overflow=hidden;fontColor=#333333;strokeColor=#666666;whiteSpace=wrap;" vertex="1" parent="ot_BCaKHzkHSlwnmK5Li-124">
          <mxGeometry x="80" width="160" height="30" as="geometry">
            <mxRectangle width="160" height="30" as="alternateBounds" />
          </mxGeometry>
        </mxCell>
        <mxCell id="ot_BCaKHzkHSlwnmK5Li-127" value="" style="edgeStyle=orthogonalEdgeStyle;fontSize=12;html=1;endArrow=ERoneToMany;rounded=0;entryX=0.496;entryY=1.024;entryDx=0;entryDy=0;entryPerimeter=0;exitX=0;exitY=0.5;exitDx=0;exitDy=0;" edge="1" parent="1" source="cqDJRctu_U0ZVXSVVv-S-8" target="ot_BCaKHzkHSlwnmK5Li-29">
          <mxGeometry width="100" height="100" relative="1" as="geometry">
            <mxPoint x="1430" y="500" as="sourcePoint" />
            <mxPoint x="1530" y="400" as="targetPoint" />
          </mxGeometry>
        </mxCell>
        <mxCell id="ot_BCaKHzkHSlwnmK5Li-138" value="" style="edgeStyle=orthogonalEdgeStyle;fontSize=12;html=1;endArrow=ERoneToMany;rounded=0;entryX=0.998;entryY=0.895;entryDx=0;entryDy=0;entryPerimeter=0;exitX=0;exitY=0.5;exitDx=0;exitDy=0;" edge="1" parent="1" source="DIrFXB5llvS2kj0vWRAP-15" target="ot_BCaKHzkHSlwnmK5Li-118">
          <mxGeometry width="100" height="100" relative="1" as="geometry">
            <mxPoint x="1670" y="455" as="sourcePoint" />
            <mxPoint x="1514.04" y="346.72000000000025" as="targetPoint" />
          </mxGeometry>
        </mxCell>
        <mxCell id="ot_BCaKHzkHSlwnmK5Li-139" value="" style="edgeStyle=orthogonalEdgeStyle;fontSize=12;html=1;endArrow=ERoneToMany;rounded=0;entryX=0.502;entryY=1.071;entryDx=0;entryDy=0;entryPerimeter=0;exitX=1;exitY=0.5;exitDx=0;exitDy=0;" edge="1" parent="1" source="cqDJRctu_U0ZVXSVVv-S-8" target="ot_BCaKHzkHSlwnmK5Li-124">
          <mxGeometry width="100" height="100" relative="1" as="geometry">
            <mxPoint x="1670" y="455" as="sourcePoint" />
            <mxPoint x="1514.04" y="346.72000000000025" as="targetPoint" />
            <Array as="points">
              <mxPoint x="2053" y="445" />
              <mxPoint x="2053" y="350" />
              <mxPoint x="2054" y="350" />
            </Array>
          </mxGeometry>
        </mxCell>
        <mxCell id="ot_BCaKHzkHSlwnmK5Li-141" value="" style="edgeStyle=orthogonalEdgeStyle;fontSize=12;html=1;endArrow=ERoneToMany;rounded=0;entryX=0.5;entryY=0;entryDx=0;entryDy=0;exitX=0.5;exitY=1;exitDx=0;exitDy=0;" edge="1" parent="1" source="cqDJRctu_U0ZVXSVVv-S-1" target="CnmkukpoRnF5Mc1D4gRC-4">
          <mxGeometry width="100" height="100" relative="1" as="geometry">
            <mxPoint x="1630" y="750" as="sourcePoint" />
            <mxPoint x="1730" y="650" as="targetPoint" />
          </mxGeometry>
        </mxCell>
        <mxCell id="ot_BCaKHzkHSlwnmK5Li-142" value="" style="edgeStyle=orthogonalEdgeStyle;fontSize=12;html=1;endArrow=ERoneToMany;rounded=0;strokeColor=default;entryX=0.497;entryY=0.963;entryDx=0;entryDy=0;exitX=0.5;exitY=0;exitDx=0;exitDy=0;entryPerimeter=0;" edge="1" parent="1" source="cqDJRctu_U0ZVXSVVv-S-1" target="ot_BCaKHzkHSlwnmK5Li-143">
          <mxGeometry width="100" height="100" relative="1" as="geometry">
            <mxPoint x="1910.5" y="-432" as="sourcePoint" />
            <mxPoint x="2103" y="-526" as="targetPoint" />
            <Array as="points">
              <mxPoint x="1780" y="110" />
              <mxPoint x="2094" y="110" />
              <mxPoint x="2094" y="-470" />
              <mxPoint x="2092" y="-470" />
            </Array>
          </mxGeometry>
        </mxCell>
      </root>
    </mxGraphModel>
  </diagram>
</mxfile>
